<svg xmlns="http://www.w3.org/2000/svg" viewBox="0 0 800 800" xml:space="preserve">
  <path style="fill:#211915" d="M409.374 121.311v2.091h-2.091v-6.971h-22.308l-3.486 1.394h-64.833l-3.834-2.789-69.016.349-4.531 3.486s-64.136 0-67.273-.349-15.337-.697-19.52-1.743-16.731-3.486-23.005-3.486-18.575.213-24.051 1.394c-3.424.739-18.474 6.623-23.005 8.714s-24.399 13.594-32.068 18.474-14.291 12.548-15.337 14.291.349 4.88.349 4.88 3.137 3.834 5.577 4.183 4.88.349 5.228 2.44c.349 2.091-2.091 2.091-2.091 2.091l43.57-.697 2.44-5.228h.763a6.25 6.25 0 0 0-1.569 4.145 6.285 6.285 0 0 0 12.57 0c0-1.59-.595-3.038-1.569-4.145h.38l4.76 7.668 10.108.349 1.046-2.788h1.183a6.28 6.28 0 0 0 6.186 5.202 6.28 6.28 0 0 0 6.186-5.202h207.618a6.28 6.28 0 0 0 6.186 5.202 6.28 6.28 0 0 0 6.186-5.202h1.388l1.743 2.44h10.805l1.046-2.44h1.026a6.28 6.28 0 0 0 6.186 5.202 6.28 6.28 0 0 0 6.186-5.202h27.026l.007-5.228h1.397v-5.228h1.743v1.743h2.44v-39.039zm-111.889-4.88h12.548v2.091h-12.548zm-17.776 0h12.548v2.091h-12.548zm-15.686 0h12.548v2.091h-12.548zm-17.776 0h12.548v2.091h-12.548zm-130.039 2.944c7.608-.348 23.935.341 24.098.348h264.886v1.084H140.283c-.187-.007-16.469-.694-24.026-.349-7.502.341-15.452 3.08-15.532 3.108l1.084-1.31c.081-.028 6.74-2.533 14.399-2.881m266.327 12.393v12.897H178.277v-12.897zm-211.349-5.69v2.286h-1.714v-2.286zm-4.857 1.786v23.142a2.07 2.07 0 0 1-2.071 2.071h-9.142a2.07 2.07 0 0 1-2.071-2.071v-23.142a2.07 2.07 0 0 1 2.071-2.071h9.142a2.07 2.07 0 0 1 2.071 2.071m-26.854 2.893v14.005s-21.739-.209-26.755 0c-5.017.209-11.705.836-15.677 2.09s-11.287 3.553-11.287 3.553l-3.762-7.107s7.734-4.181 14.423-7.107c6.843-2.994 13.378-4.389 20.484-4.808 4.595-.269 22.574-.626 22.574-.626m-85.81 16.696c-1.251 0-2.266-.78-2.266-1.743 0-.962 1.014-1.743 2.266-1.743 1.251 0 2.266.78 2.266 1.743s-1.014 1.743-2.266 1.743m28.471-23.194c4.531-2.091 19.52-8.366 23.005-8.714-.697 3.137-6.274 9.411-8.714 11.154s-17.777 7.32-25.097 9.411c-6.24 1.783-12.211 2.045-13.842 2.084 9.057-5.408 21.226-12.355 24.648-13.935m-23.417 17.269c0-.77 1.405-1.394 3.137-1.394 1.733 0 3.137.624 3.137 1.394s-1.405 1.394-3.137 1.394-3.137-.624-3.137-1.394m348.264 13.501-306.866-.238s-10.642.429-18.142 3.928c-4.488 2.094-14.628 7.694-14.628 7.694l-5.49.044s12.69-8.238 19.618-12.023c5.838-3.19 14.928-6.5 22.666-7.404 6.476-.757 40.903-.452 40.903-.452l7.443.006v5.772a2.245 2.245 0 0 0 2.245 2.245h9.908a2.245 2.245 0 0 0 2.245-2.245v-5.761l240.098.196zm228.43-13.22h10.805a2.614 2.614 0 0 0 2.614-2.614v-4.183a2.614 2.614 0 0 0-2.614-2.614h-10.805a2.614 2.614 0 0 0-2.614 2.614v4.183a2.614 2.614 0 0 0 2.614 2.614m-44.965 0h10.805a2.614 2.614 0 0 0 2.614-2.614v-4.183a2.614 2.614 0 0 0-2.614-2.614h-10.805a2.614 2.614 0 0 0-2.614 2.614v4.183a2.614 2.614 0 0 0 2.614 2.614m-22.308 0h10.805a2.614 2.614 0 0 0 2.614-2.614v-4.183a2.614 2.614 0 0 0-2.614-2.614H568.14a2.614 2.614 0 0 0-2.614 2.614v4.183a2.614 2.614 0 0 0 2.614 2.614m89.581 0h10.805a2.614 2.614 0 0 0 2.614-2.614v-4.183a2.614 2.614 0 0 0-2.614-2.614h-10.805a2.614 2.614 0 0 0-2.614 2.614v4.183a2.614 2.614 0 0 0 2.614 2.614m22.831 0h10.805a2.614 2.614 0 0 0 2.614-2.614v-4.183a2.614 2.614 0 0 0-2.614-2.614h-10.805a2.614 2.614 0 0 0-2.614 2.614v4.183a2.614 2.614 0 0 0 2.614 2.614m-67.273 0h10.805a2.614 2.614 0 0 0 2.614-2.614v-4.183a2.614 2.614 0 0 0-2.614-2.614h-10.805a2.614 2.614 0 0 0-2.614 2.614v4.183a2.614 2.614 0 0 0 2.614 2.614m-67.97 0h10.805a2.614 2.614 0 0 0 2.614-2.614v-4.183a2.614 2.614 0 0 0-2.614-2.614h-10.805a2.614 2.614 0 0 0-2.614 2.614v4.183a2.614 2.614 0 0 0 2.614 2.614m-54.956-2.614v-4.183a2.614 2.614 0 0 0-2.614-2.614h-10.805a2.614 2.614 0 0 0-2.614 2.614v4.183a2.614 2.614 0 0 0 2.614 2.614h10.805a2.614 2.614 0 0 0 2.614-2.614m32.125 2.614h10.805a2.614 2.614 0 0 0 2.614-2.614v-4.183a2.614 2.614 0 0 0-2.614-2.614h-10.805a2.614 2.614 0 0 0-2.614 2.614v4.183a2.614 2.614 0 0 0 2.614 2.614m-22.308 0h10.805a2.614 2.614 0 0 0 2.614-2.614v-4.183a2.614 2.614 0 0 0-2.614-2.614H500.17a2.614 2.614 0 0 0-2.614 2.614v4.183a2.614 2.614 0 0 0 2.614 2.614m-63.077.649h3.397a.777.777 0 0 0 .777-.777v-12.159a.777.777 0 0 0-.777-.777h-3.397a.777.777 0 0 0-.777.777v12.159a.776.776 0 0 0 .777.777m290.557 0h3.398a.777.777 0 0 0 .777-.777v-12.159a.777.777 0 0 0-.777-.777h-3.398a.777.777 0 0 0-.777.777v12.159a.776.776 0 0 0 .777.777"/>
  <path style="fill:#211915" d="M753.633 122.459v-6.476h-22.285l-3.047 2.095H622.973l-3.809-3.238h-70.282l-2.667 2.667h-106.09l-3.428-1.905h-21.904v6.857h-3.428c.19-.19 0 37.331 0 37.331h4v3.047h.381v5.238c-.183.183 16.225.132 28.08.071.276 3.115 2.862 5.567 6.049 5.567 3.165 0 5.738-2.419 6.043-5.504l3.54 2.723h10.571l1.428-2.857h1.213c.242 3.149 2.845 5.638 6.056 5.638s5.814-2.489 6.056-5.638H684.34c.242 3.149 2.845 5.638 6.056 5.638s5.814-2.489 6.056-5.638h.135l3.143 2.857h10.285l1.143-2.571h2.062c.374 3.012 2.914 5.352 6.027 5.352s5.653-2.34 6.028-5.352h27.881v-5.524h.286v-2.857h3.809v-37.522zm-30.665 6.498a2.43 2.43 0 0 1 2.431-2.431h6.946a2.43 2.43 0 0 1 2.431 2.431v20.145a2.43 2.43 0 0 1-2.431 2.431h-6.946a2.43 2.43 0 0 1-2.431-2.431zm-120.661-12.7h13.428v1.928h-13.428zm-16.571 0h13.428v1.928h-13.428zm-16.57 0h13.428v1.928h-13.428zm-16.571 0h13.428v1.928h-13.428zm-80.853 13.987h226.587v12.161c.498.469-226.587.434-226.587.434zm-38.76-.799a2.314 2.314 0 0 1 2.314-2.314h6.61a2.314 2.314 0 0 1 2.314 2.314v19.17a2.314 2.314 0 0 1-2.314 2.314h-6.61a2.314 2.314 0 0 1-2.314-2.314zm320.27 28.25h-338.65v-1.143h338.65zm0-3.047h-338.65v-10.666h17.523v6.095a2.667 2.667 0 0 0 2.667 2.667h7.619a2.667 2.667 0 0 0 2.667-2.667v-6.095h277.32v6.095a2.667 2.667 0 0 0 2.667 2.667h7.619a2.667 2.667 0 0 0 2.667-2.667v-6.095h17.904v10.666z"/>
</svg>
