<?xml version="1.0" standalone="no"?>
<!DOCTYPE svg PUBLIC "-//W3C//DTD SVG 20010904//EN"
 "http://www.w3.org/TR/2001/REC-SVG-20010904/DTD/svg10.dtd">
<svg version="1.0" xmlns="http://www.w3.org/2000/svg"
 width="1280.000000pt" height="1012.000000pt" viewBox="0 0 1280.000000 1012.000000"
 preserveAspectRatio="xMidYMid meet">
<metadata>
Created by potrace 1.15, written by Peter Selinger 2001-2017
</metadata>
<g transform="translate(0.000000,1012.000000) scale(0.100000,-0.100000)"
fill="#000000" stroke="none">
<path d="M8542 10110 c-60 -24 -26 -77 55 -87 45 -5 53 -9 61 -32 5 -14 32
-56 59 -92 28 -35 58 -80 67 -98 21 -39 36 -125 26 -142 -4 -6 -48 -20 -96
-30 -101 -22 -144 -37 -144 -52 0 -7 37 -8 109 -4 152 9 151 10 158 -153 7
-151 -4 -203 -45 -218 -15 -5 -66 -15 -113 -22 -47 -6 -91 -15 -98 -19 -15
-10 41 -20 119 -22 118 -3 141 -22 95 -77 -29 -35 -31 -49 -10 -88 17 -34 20
-160 5 -216 -6 -21 -19 -42 -28 -47 -10 -5 -79 -14 -155 -20 -75 -6 -142 -13
-149 -15 -7 -3 -25 -7 -40 -10 -16 -4 -28 -11 -28 -16 0 -6 58 -10 149 -10 82
0 156 -3 165 -6 25 -9 20 -53 -6 -63 -13 -4 -89 -11 -169 -15 -80 -3 -188 -13
-240 -22 -52 -8 -129 -18 -171 -21 -68 -5 -78 -3 -84 12 -12 29 28 52 134 75
131 29 172 42 172 52 0 12 -29 10 -142 -12 -133 -26 -144 -25 -164 6 -16 24
-16 29 -1 78 19 60 81 160 119 192 18 15 28 36 33 69 7 51 49 105 80 105 9 0
54 36 100 80 73 70 87 79 118 78 25 -1 45 7 66 25 25 20 45 26 108 32 106 9
123 19 38 23 -89 4 -388 -30 -599 -68 -231 -42 -234 -41 -169 31 47 52 92 75
209 104 53 13 98 26 101 29 16 16 -14 19 -79 8 -55 -10 -73 -10 -79 -1 -13 22
11 65 46 82 41 19 155 43 253 53 80 7 131 34 102 54 -22 15 -68 12 -182 -10
-142 -28 -143 -27 -175 23 -14 23 -37 58 -50 78 -13 19 -23 40 -23 47 0 40
153 154 275 205 74 31 105 52 105 72 0 21 -21 23 -90 9 -71 -15 -309 -128
-361 -171 -16 -14 -68 -72 -115 -128 -89 -109 -145 -154 -224 -180 -38 -12
-51 -23 -59 -45 -5 -16 -27 -55 -49 -87 -39 -57 -293 -369 -403 -494 -31 -35
-145 -188 -254 -339 -108 -151 -207 -286 -220 -300 -12 -14 -30 -38 -38 -55
-8 -16 -30 -43 -47 -60 -18 -16 -47 -53 -64 -80 -18 -28 -79 -102 -135 -165
-57 -63 -114 -135 -129 -160 -14 -25 -43 -60 -63 -77 -20 -18 -70 -79 -110
-135 -40 -57 -113 -144 -161 -195 -48 -51 -112 -125 -142 -166 -30 -40 -70
-87 -91 -103 -82 -66 -84 -70 -78 -108 5 -34 4 -36 -27 -43 -48 -9 -182 -140
-216 -210 -15 -30 -38 -62 -51 -71 -14 -8 -39 -41 -56 -71 -32 -56 -64 -91
-190 -209 -58 -54 -67 -67 -67 -97 0 -40 -11 -43 -47 -15 -30 24 -80 26 -109
5 -27 -18 -48 -94 -40 -140 6 -31 5 -35 -14 -35 -16 0 -28 15 -49 64 -29 64
-50 83 -70 63 -22 -22 -13 -81 19 -123 35 -46 36 -54 11 -54 -24 0 -71 37 -71
56 0 25 -68 47 -125 40 -132 -15 -161 -32 -135 -81 8 -15 34 -40 57 -57 45
-30 56 -61 26 -72 -31 -12 -79 14 -127 69 -50 59 -76 70 -76 32 0 -24 44 -100
88 -152 l25 -30 -59 -5 c-59 -5 -59 -5 -64 -40 -3 -24 -13 -38 -30 -47 -37
-18 -61 3 -75 64 -15 64 -51 126 -116 198 -53 57 -101 85 -148 85 -14 0 -44
10 -66 22 -33 18 -55 22 -130 21 -165 -2 -259 -11 -300 -28 -22 -10 -69 -21
-105 -26 -80 -10 -141 -35 -231 -95 -45 -29 -71 -54 -77 -74 -6 -16 -33 -59
-61 -96 -28 -37 -51 -71 -51 -75 0 -13 36 -29 67 -29 22 0 25 -2 13 -10 -24
-16 -87 -31 -103 -24 -9 3 -19 18 -22 34 -16 71 -150 229 -214 252 -28 10
-169 12 -661 10 -849 -5 -1291 13 -1595 63 -49 8 -115 15 -146 15 -49 0 -62
-5 -112 -40 -98 -70 -86 -100 54 -145 125 -39 233 -53 577 -76 272 -17 334
-18 398 -8 61 10 130 10 338 -1 262 -12 591 -5 845 20 53 5 120 10 150 10 47
0 52 -2 40 -16 -7 -8 -40 -28 -74 -43 -169 -77 -392 -131 -822 -201 -134 -22
-254 -45 -266 -52 -15 -7 -144 -14 -387 -19 -617 -14 -781 -29 -861 -75 -45
-26 -47 -52 -9 -100 l32 -39 281 3 c341 4 709 19 797 32 36 5 106 10 156 10
66 0 120 7 190 26 55 14 150 36 213 50 62 14 121 29 131 34 9 5 59 13 111 19
77 8 112 18 194 54 122 54 239 97 266 97 53 0 188 -93 224 -154 33 -57 32 -80
-7 -107 -50 -34 -88 -71 -88 -86 0 -7 14 -19 30 -28 39 -20 39 -53 0 -88 -40
-36 -38 -53 7 -74 38 -18 38 -18 41 -85 3 -58 -1 -74 -28 -124 -34 -64 -42
-152 -16 -174 8 -6 16 -28 18 -48 3 -32 7 -37 31 -40 16 -2 39 4 52 12 41 27
52 18 18 -15 -38 -35 -37 -28 -19 -70 7 -19 17 -63 20 -99 11 -93 61 -186 158
-292 60 -64 216 -192 262 -214 22 -11 42 -26 46 -34 4 -8 13 -27 20 -42 12
-26 151 -146 233 -201 59 -40 139 -61 209 -54 32 3 65 10 73 17 8 6 21 35 29
63 9 29 34 84 57 122 133 226 168 351 189 673 6 89 15 185 21 212 11 53 42
100 65 100 21 0 17 -17 -6 -23 -44 -11 -17 -195 45 -315 28 -52 41 -98 61
-207 49 -275 108 -467 207 -678 51 -111 59 -134 54 -170 -5 -40 -4 -42 58
-101 54 -51 67 -70 80 -118 12 -41 27 -68 56 -96 39 -37 41 -42 48 -119 5 -66
11 -85 34 -112 15 -18 27 -39 27 -47 0 -8 3 -14 8 -14 4 0 17 -8 30 -18 23
-18 23 -19 6 -49 -17 -29 -17 -33 10 -144 32 -131 58 -181 120 -236 61 -54
108 -77 138 -70 34 9 166 105 192 140 28 38 13 59 -57 76 -32 7 -57 17 -57 22
0 4 26 26 58 48 90 61 87 52 68 200 -17 136 -14 200 12 241 21 33 29 205 12
274 -11 47 -10 59 15 141 40 133 44 142 86 180 39 35 72 45 84 25 3 -5 17 -10
31 -10 28 0 31 -16 8 -48 -21 -31 -11 -56 19 -48 34 8 56 -13 59 -59 3 -35 6
-40 28 -40 18 0 26 6 28 23 4 26 45 57 67 49 8 -4 22 -23 32 -44 23 -47 41
-48 66 -3 24 45 50 73 99 106 37 26 40 26 56 10 13 -12 16 -31 15 -70 -2 -48
0 -56 22 -70 28 -19 32 -48 10 -86 -39 -68 -1 -66 106 5 91 60 125 68 134 32
12 -46 -41 -137 -79 -137 -57 0 -126 -80 -126 -146 0 -44 20 -58 66 -45 72 20
73 -12 3 -82 -37 -37 -49 -56 -45 -71 3 -12 8 -50 12 -86 4 -36 13 -78 22 -94
14 -29 13 -64 -4 -167 -5 -32 -2 -41 29 -75 43 -48 54 -86 67 -239 15 -179 18
-190 61 -242 24 -29 46 -69 55 -103 26 -94 29 -98 71 -102 37 -3 39 -5 60 -67
14 -41 35 -78 59 -102 35 -35 36 -40 30 -84 -5 -29 -17 -57 -34 -76 -26 -29
-31 -30 -146 -39 -65 -5 -123 -13 -128 -18 -18 -18 -3 -47 32 -64 41 -21 151
-24 228 -7 65 13 150 65 179 108 21 31 23 45 23 161 0 125 -1 128 -29 168 -16
22 -34 43 -40 46 -5 3 -13 21 -16 39 -4 17 -22 60 -41 94 -34 61 -43 106 -24
118 15 9 12 77 -10 210 -23 140 -25 220 -7 232 6 4 41 8 77 8 74 0 80 7 99
108 5 32 19 70 29 85 11 15 23 37 26 50 6 19 4 22 -17 22 -28 0 -54 -28 -105
-114 -35 -58 -61 -72 -63 -33 -5 73 15 206 37 249 39 75 174 -22 174 -123 0
-66 -36 -226 -77 -339 -63 -173 -63 -177 -14 -293 37 -87 41 -104 41 -182 0
-114 34 -195 81 -195 25 0 33 52 25 152 -9 104 -59 327 -90 400 -6 13 -1 17
26 20 41 4 45 20 47 168 2 160 13 210 80 345 77 156 132 295 176 447 20 68 44
139 53 158 18 36 95 95 140 107 36 9 48 -13 62 -110 7 -51 25 -111 46 -158 40
-89 46 -177 17 -232 -25 -48 -108 -301 -140 -427 -23 -90 -26 -114 -16 -129
11 -17 8 -29 -17 -76 -18 -34 -30 -72 -30 -94 0 -20 -7 -46 -15 -57 -10 -13
-14 -45 -15 -106 0 -53 -6 -106 -16 -134 -13 -37 -14 -55 -5 -90 6 -23 11 -83
11 -133 0 -99 12 -146 35 -137 29 11 25 -15 -15 -93 -44 -89 -48 -109 -23
-118 16 -6 43 19 86 81 10 14 27 26 37 26 24 0 24 -3 5 -57 -20 -59 -8 -88 50
-113 30 -13 45 -25 45 -38 0 -22 70 -169 112 -235 38 -60 63 -73 169 -87 130
-18 173 -47 186 -126 5 -29 3 -34 -14 -34 -31 0 -70 36 -76 70 -8 40 -25 38
-43 -5 -20 -49 -18 -78 11 -136 24 -46 24 -51 10 -72 -24 -34 -19 -93 14 -151
32 -56 75 -186 86 -257 5 -36 3 -55 -13 -85 -29 -57 -50 -71 -117 -79 -33 -4
-68 -11 -77 -16 -24 -13 -23 -42 1 -63 25 -23 131 -55 201 -62 67 -6 105 14
147 77 26 40 28 50 31 174 4 120 2 137 -22 206 -19 56 -26 96 -26 153 0 45 -6
91 -15 113 -19 46 -19 65 3 102 16 30 16 33 -7 93 -33 89 -32 97 18 136 39 29
49 33 80 26 131 -29 154 2 206 266 15 74 38 166 51 204 21 61 24 88 25 225 0
86 4 165 8 176 7 18 11 16 44 -20 42 -45 92 -135 101 -180 3 -16 12 -80 20
-142 17 -130 45 -195 105 -243 46 -37 78 -94 121 -212 17 -48 49 -116 71 -153
42 -70 55 -120 78 -314 8 -62 22 -117 41 -160 48 -110 51 -173 9 -186 -10 -4
-33 -18 -49 -32 -57 -47 -28 -113 57 -129 48 -9 79 8 93 52 15 45 8 284 -9
328 -21 52 -16 89 17 135 35 49 38 68 20 138 -11 39 -30 66 -101 141 -49 51
-87 98 -84 105 2 6 22 13 45 15 67 5 93 62 52 115 -11 14 -20 30 -20 36 0 6
-17 29 -37 52 -41 45 -35 59 23 59 65 0 265 -155 392 -303 58 -68 89 -96 115
-104 46 -14 62 -3 59 41 -3 43 16 56 87 56 91 0 124 -26 81 -65 -24 -22 -25
-38 -4 -59 23 -23 47 -20 88 13 20 16 72 43 116 61 46 18 85 41 91 52 9 17 18
19 57 14 99 -13 106 -12 117 12 8 17 18 22 49 22 l39 0 -7 56 c-7 63 -3 69
107 151 33 25 65 59 77 83 20 38 24 41 58 38 31 -2 39 -8 51 -35 8 -18 21 -33
28 -33 16 0 17 31 2 83 -6 22 -8 41 -6 44 3 2 19 -3 36 -11 33 -17 67 -21 75
-8 3 5 -6 25 -21 45 -37 52 -12 76 43 41 13 -9 27 -15 29 -12 2 2 -4 31 -15
63 -21 70 -14 85 30 68 29 -11 30 -11 30 20 0 43 9 55 45 59 28 3 30 5 27 43
-2 22 3 56 12 75 12 30 12 38 0 55 -9 12 -14 45 -14 96 0 69 -3 80 -22 93 -34
24 -98 19 -201 -14 -89 -28 -382 -74 -567 -88 -137 -11 -333 -7 -393 7 -47 12
-72 12 -137 2 -78 -12 -145 -7 -156 10 -3 5 -5 32 -6 60 0 38 6 59 21 78 50
62 53 70 60 176 6 79 12 110 25 123 13 13 43 18 144 23 70 4 142 10 160 14
l32 7 0 -52 c0 -60 13 -63 43 -10 33 60 82 80 140 59 29 -10 38 -10 58 4 13
10 33 17 45 17 13 0 36 12 53 26 35 29 51 25 51 -16 0 -21 -10 -36 -40 -60
-25 -20 -40 -40 -40 -53 1 -20 2 -20 11 -4 27 46 99 -6 134 -97 31 -81 -8 -86
-75 -9 l-33 37 7 -47 7 -47 -51 0 -50 0 29 -58 c19 -38 39 -63 58 -71 16 -8
79 -16 148 -19 111 -4 129 -2 242 27 67 17 140 31 163 31 23 0 62 5 86 11 44
11 47 11 70 -15 22 -23 32 -26 90 -26 77 0 91 16 50 59 -23 24 -34 51 -21 51
3 0 21 -6 40 -14 61 -26 63 16 3 76 -23 23 -33 38 -22 33 88 -36 114 -44 120
-34 3 6 0 18 -8 27 -8 9 -33 39 -56 66 -23 27 -42 55 -42 62 0 26 29 14 61
-26 48 -60 74 -51 58 20 -5 19 -9 50 -9 69 0 28 -10 44 -55 88 -30 30 -55 58
-55 64 0 5 11 9 24 9 42 0 40 20 -7 68 -56 57 -75 100 -49 108 66 21 89 54 99
139 4 32 1 44 -16 59 -22 20 -28 51 -11 61 17 10 11 36 -15 67 -31 37 -28 51
11 58 46 8 38 39 -20 78 l-50 33 66 -7 c87 -9 97 6 38 57 -37 32 -42 40 -31
53 24 28 9 58 -43 85 -27 14 -53 33 -56 41 -23 51 -40 72 -85 102 -67 45 -70
69 -15 121 l42 38 -31 33 -32 33 32 24 31 25 -46 37 c-25 21 -46 43 -46 49 0
6 -7 19 -16 29 -15 16 -14 20 1 47 l17 29 -43 44 c-24 24 -68 55 -96 68 -29
14 -53 27 -53 31 0 8 67 38 95 42 41 7 22 40 -50 84 -38 24 -78 43 -87 44 -10
0 -27 14 -40 30 -12 17 -36 34 -53 38 -25 7 -29 13 -27 34 5 39 -30 58 -104
58 -51 0 -68 4 -91 24 -48 39 -69 46 -149 46 -81 0 -87 9 -21 30 67 21 43 50
-42 50 -66 0 -153 18 -169 34 -12 12 -12 16 5 24 10 6 35 13 56 17 39 8 55 21
40 36 -4 4 -42 15 -83 24 -40 8 -97 29 -124 45 l-51 29 39 16 c209 87 332 153
372 197 42 45 46 64 29 120 -10 35 -12 55 -5 63 11 13 52 22 244 55 65 11 130
27 146 35 15 8 58 22 96 31 38 9 105 35 149 57 44 22 130 61 191 87 274 118
733 394 1190 716 310 219 408 309 529 491 112 167 188 351 172 415 -17 68 -94
120 -239 162 -121 35 -264 46 -594 46 -287 0 -298 -1 -645 -45 -195 -25 -379
-52 -409 -60 -30 -8 -89 -20 -130 -25 -87 -12 -259 -53 -515 -121 -99 -26
-227 -60 -285 -74 -58 -15 -173 -48 -255 -75 -83 -27 -205 -62 -270 -79 -101
-26 -355 -110 -1163 -388 -155 -53 -161 -41 -49 93 33 40 71 93 86 118 14 26
48 77 74 115 60 84 81 138 64 164 -12 18 -113 61 -207 89 -72 21 -66 37 52
152 57 55 125 133 151 173 96 145 186 373 262 667 31 120 67 248 80 283 35 93
142 746 152 928 4 90 1 116 -30 255 -72 319 -105 378 -247 444 -57 27 -99 31
-138 16z m-518 -493 c22 -16 18 -56 -7 -71 -14 -9 -26 -6 -57 12 -21 12 -48
22 -59 22 -33 0 -24 16 17 33 46 20 83 21 106 4z m-227 -104 c6 -16 -30 -34
-47 -23 -11 7 -12 11 0 25 15 18 41 17 47 -2z m128 -63 c15 -6 25 -15 23 -20
-2 -6 -39 -26 -83 -45 -43 -19 -86 -41 -94 -50 -14 -13 -11 -15 26 -15 50 0
68 -18 48 -47 -24 -34 -109 -83 -180 -103 -99 -28 -117 -48 -65 -70 34 -14 54
-61 29 -68 -8 -3 -34 -27 -59 -55 -25 -28 -84 -92 -131 -141 -47 -50 -98 -112
-113 -138 -31 -55 -122 -133 -166 -143 -33 -7 -38 -28 -15 -59 8 -11 15 -28
15 -37 0 -24 -71 -74 -152 -105 -37 -15 -68 -31 -68 -36 0 -4 16 -8 36 -8 l36
0 -42 -50 c-49 -59 -91 -86 -147 -95 -36 -6 -43 -4 -53 14 -14 27 -2 49 45 85
19 15 35 35 35 44 0 66 295 512 475 717 126 144 156 170 256 218 52 25 103 52
114 61 18 14 15 14 -37 9 -32 -3 -58 -2 -58 3 1 25 75 107 113 125 47 21 167
26 212 9z m469 -205 c-7 -17 -65 -55 -86 -55 -7 0 -43 -15 -78 -34 -60 -31
-387 -146 -417 -146 -17 0 -17 -17 0 -24 17 -7 -15 -32 -88 -67 -82 -39 -123
-47 -131 -24 -5 11 6 29 34 58 22 23 69 78 104 122 35 44 75 86 90 93 30 14
472 90 535 91 34 1 41 -2 37 -14z m-334 -274 c8 -16 5 -23 -17 -40 -23 -19
-25 -24 -15 -45 23 -50 -52 -105 -172 -127 -37 -7 -75 -18 -84 -25 -16 -11
-16 -13 1 -31 25 -28 21 -46 -15 -82 -40 -40 -183 -109 -240 -117 -24 -3 -87
-21 -141 -40 -113 -39 -137 -42 -137 -15 0 29 87 119 147 153 29 16 53 32 53
34 0 2 -5 13 -12 23 -9 15 -7 25 12 56 31 50 98 79 305 135 172 46 208 59 163
60 -41 0 -34 16 19 50 56 36 117 41 133 11z m-115 -335 c16 -11 17 -17 7 -29
-19 -23 -76 -47 -112 -47 -18 0 -29 -4 -25 -10 3 -5 25 -10 48 -10 58 0 70
-10 58 -43 -6 -16 -18 -27 -30 -27 -10 0 -44 -11 -75 -25 -31 -14 -71 -26 -89
-28 -31 -2 -32 -1 -32 38 0 34 5 42 38 65 21 14 43 37 50 50 11 23 105 80 131
80 7 0 21 -6 31 -14z m734 -160 c26 -24 26 -29 -2 -62 -23 -26 -25 -26 -202
-35 -99 -5 -229 -16 -290 -25 -60 -9 -127 -18 -147 -21 -35 -5 -38 -4 -38 18
0 33 39 85 77 103 54 26 252 44 464 42 100 -1 120 -4 138 -20z m-1091 -43 c-4
-25 -111 -77 -215 -104 -96 -25 -91 -36 17 -38 l55 -2 -45 -40 c-60 -54 -125
-83 -247 -108 -122 -25 -163 -27 -163 -7 0 24 59 62 170 110 l104 45 -74 3
-75 3 40 24 c55 32 121 57 255 96 133 39 183 44 178 18z m312 -47 c19 -24 8
-60 -25 -75 -29 -14 -313 -80 -347 -81 -71 -1 74 114 190 151 71 22 165 25
182 5z m755 -65 c9 -16 -27 -30 -106 -42 -87 -13 -122 -25 -114 -38 3 -6 33
-9 68 -8 82 1 127 -21 127 -63 0 -56 -62 -76 -360 -116 -283 -38 -303 -39
-319 -21 -11 13 -6 23 31 63 l43 46 -38 32 c-20 17 -37 38 -37 47 0 48 93 82
265 97 138 13 432 14 440 3z m-769 -92 c19 -21 19 -21 -15 -49 -37 -32 -109
-53 -253 -75 -54 -8 -117 -22 -140 -31 -51 -20 -120 -24 -125 -7 -7 20 66 91
110 107 23 9 97 23 164 31 66 9 138 22 160 30 54 19 77 18 99 -6z m-636 -137
c0 -23 -52 -97 -77 -111 -10 -5 -44 -14 -75 -20 -115 -21 -166 -61 -79 -61 22
0 44 -6 51 -15 11 -13 9 -20 -11 -41 -38 -41 -117 -76 -173 -78 -28 0 -51 4
-53 10 -2 7 19 40 47 74 37 47 50 72 50 96 0 19 6 34 15 38 8 3 15 15 15 26 0
25 33 41 163 74 114 30 127 31 127 8z m-471 -1 c11 -7 5 -15 -25 -35 -44 -28
-104 -45 -104 -28 0 12 47 47 81 61 31 12 31 12 48 2z m1063 -14 c7 -11 0 -35
-16 -56 -17 -22 -65 -39 -188 -66 -62 -13 -159 -36 -216 -49 -157 -37 -198
-41 -206 -21 -10 26 52 78 127 108 35 14 111 35 168 46 57 11 127 27 154 35
88 26 161 27 177 3z m726 -74 c2 -12 -9 -35 -27 -55 -19 -22 -35 -56 -45 -99
-44 -191 -148 -387 -250 -476 -25 -21 -65 -66 -90 -101 -26 -34 -61 -71 -79
-82 -41 -25 -92 -25 -124 0 -26 20 -103 29 -103 11 0 -5 12 -18 27 -29 l27
-20 -30 -15 c-56 -29 -146 -49 -456 -101 -187 -32 -313 -57 -316 -64 -2 -8 15
-12 57 -12 34 0 61 -3 61 -7 0 -19 -117 -77 -209 -105 -32 -9 -49 -22 -61 -43
-9 -16 -32 -37 -51 -46 -19 -9 -81 -40 -139 -67 -58 -28 -116 -54 -130 -58
-14 -4 -87 -35 -162 -70 -75 -35 -140 -64 -145 -64 -4 0 -30 -15 -56 -34 -53
-37 -224 -116 -252 -116 -10 0 -38 -12 -63 -26 -39 -23 -47 -25 -69 -13 -62
33 -41 82 40 94 54 8 76 20 62 34 -7 7 -22 8 -45 1 -45 -13 -110 -13 -110 0 0
5 18 22 40 36 21 14 48 41 59 59 22 38 42 50 159 95 45 17 82 35 82 39 0 4
-26 4 -57 0 -74 -10 -90 3 -48 38 47 39 125 72 237 99 57 14 107 29 113 32 5
4 -17 11 -50 17 -33 6 -60 15 -59 20 3 29 178 96 296 115 36 5 123 24 192 40
187 45 238 38 166 -23 -43 -37 -114 -60 -320 -106 -101 -23 -186 -43 -188 -46
-15 -15 18 -13 141 7 75 12 139 19 143 15 10 -9 -14 -36 -50 -54 -78 -40 -272
-103 -319 -103 -51 0 -124 -27 -110 -41 4 -4 35 -9 68 -11 l60 -3 -60 -28
c-180 -84 -242 -118 -265 -143 l-25 -27 41 6 c23 2 78 21 123 42 45 20 109 40
141 45 74 10 103 26 97 50 -3 11 3 25 12 33 18 16 144 81 178 91 12 4 52 27
89 52 102 69 225 124 281 128 l48 3 -3 56 c-4 55 -3 56 36 82 22 15 65 37 96
49 l55 22 -30 18 c-25 15 -28 20 -18 33 21 25 68 44 147 59 86 16 125 29 162
56 15 10 107 34 226 57 110 22 213 45 228 50 29 12 44 37 29 52 -13 13 -270
-8 -338 -27 -27 -8 -106 -18 -175 -24 -69 -5 -169 -15 -223 -22 -76 -9 -107
-9 -142 0 -25 7 -83 12 -129 12 -81 0 -84 1 -90 25 -5 21 -12 25 -44 24 -41 0
-161 -42 -146 -51 5 -3 30 -9 56 -12 26 -4 50 -11 53 -15 15 -25 -87 -69 -210
-90 -38 -7 -119 -24 -178 -38 -123 -28 -143 -27 -125 12 14 32 67 65 102 65
44 0 69 18 62 44 -11 45 65 84 224 114 102 20 226 59 217 69 -3 2 -53 -3 -111
-11 -59 -9 -111 -16 -117 -16 -6 0 16 20 50 45 34 25 61 49 61 53 0 15 50 32
93 31 23 0 36 -3 30 -6 -29 -11 -9 -18 56 -18 78 0 92 -7 67 -34 -11 -12 -15
-27 -11 -44 6 -21 0 -29 -39 -56 -25 -18 -46 -36 -46 -41 0 -28 138 -22 200
10 19 9 58 25 87 34 30 10 54 25 58 35 3 9 22 34 43 54 33 33 48 39 108 48 68
11 102 27 77 36 -43 16 39 87 112 97 90 14 246 77 274 110 20 24 55 21 48 -4
-5 -18 0 -20 41 -19 26 0 111 6 190 12 104 9 145 16 152 27 13 21 -7 40 -41
40 -16 0 -47 7 -70 17 -47 19 -107 22 -196 10 -71 -10 -89 6 -25 22 104 27
405 60 517 58 63 -2 70 -4 73 -24z m-1697 -18 c0 -6 -18 -14 -40 -18 -26 -5
-41 -14 -41 -23 0 -8 -20 -35 -44 -59 -34 -35 -45 -55 -50 -90 -6 -36 -15 -52
-54 -85 -40 -36 -45 -43 -34 -60 7 -11 12 -24 12 -30 0 -11 -99 -77 -229 -151
-98 -56 -136 -62 -151 -24 -13 35 7 82 74 170 30 39 64 90 76 115 12 25 41 68
64 95 23 28 52 66 64 86 31 52 61 65 114 50 38 -10 55 -9 133 13 95 25 107 27
106 11z m813 -94 c3 -4 -2 -15 -12 -24 -25 -23 -123 -67 -149 -67 -12 0 -48
-12 -80 -26 -32 -14 -80 -30 -107 -35 -27 -5 -52 -12 -55 -15 -10 -10 23 -24
57 -24 18 0 31 -4 27 -9 -9 -16 -163 -71 -179 -65 -26 10 -18 32 16 50 30 16
31 17 13 30 -10 8 -39 14 -64 14 -25 0 -53 5 -61 10 -13 8 -12 11 5 24 81 60
381 142 527 145 31 1 59 -3 62 -8z m4756 -510 c52 -13 105 -25 116 -27 12 -2
43 -18 70 -36 42 -28 49 -38 52 -69 7 -84 -44 -215 -139 -355 -87 -131 -107
-151 -281 -290 -92 -74 -185 -156 -208 -183 -23 -27 -52 -52 -66 -55 -13 -4
-73 -40 -134 -81 -61 -41 -141 -89 -178 -107 -37 -18 -90 -51 -118 -75 -28
-23 -83 -56 -124 -72 -40 -17 -99 -46 -130 -65 -32 -20 -78 -45 -104 -56 -26
-11 -61 -31 -79 -44 -18 -13 -96 -54 -175 -89 -78 -36 -164 -79 -190 -95 -26
-16 -69 -32 -96 -35 -27 -4 -72 -20 -101 -37 -29 -16 -60 -30 -69 -30 -9 0
-34 -9 -56 -20 -21 -11 -118 -38 -216 -61 l-178 -41 -90 21 c-50 12 -210 35
-356 52 -146 17 -287 35 -313 40 -27 5 -164 13 -305 19 -269 10 -385 18 -408
27 -19 7 -18 19 6 43 11 11 20 33 20 51 0 117 129 155 445 130 77 -6 331 -18
565 -26 432 -16 571 -26 628 -46 18 -6 89 -12 160 -12 107 -2 127 0 127 13 0
9 -16 20 -40 27 -54 16 -300 52 -405 59 -111 7 -150 13 -150 24 0 12 116 83
247 152 85 45 137 81 216 152 146 130 164 142 236 162 46 13 75 29 103 56 22
21 52 41 66 44 15 3 47 14 72 24 25 10 88 26 140 34 179 31 212 39 217 54 3 8
0 18 -8 23 -8 5 -102 8 -209 7 -190 -2 -197 -2 -260 24 -36 14 -148 45 -250
68 -268 61 -422 122 -380 150 8 5 40 17 70 26 147 43 146 84 -2 53 -29 -6
-118 -29 -198 -51 -80 -22 -189 -51 -244 -64 -54 -14 -111 -31 -127 -39 -15
-8 -37 -15 -48 -15 -11 0 -74 -20 -141 -45 -139 -53 -248 -77 -316 -73 -42 3
-49 6 -54 28 -7 28 -20 29 -83 4 -71 -27 -198 4 -167 41 6 7 46 21 88 30 42
10 111 28 152 40 41 13 95 26 119 30 61 10 140 38 214 77 58 29 70 32 172 34
116 2 187 18 365 84 47 16 139 39 205 51 66 11 203 39 305 62 l185 43 0 39 c0
39 1 40 39 43 34 3 38 1 33 -17 -2 -11 1 -22 7 -24 28 -11 394 58 681 128 271
66 322 76 405 76 129 1 181 -22 165 -72 -16 -51 -332 -146 -611 -184 -99 -13
-209 -31 -245 -39 -35 -8 -93 -18 -129 -22 -92 -9 -427 -72 -475 -88 -22 -8
-56 -17 -76 -20 -41 -7 -87 -46 -54 -46 47 0 444 54 550 75 66 13 236 40 377
59 142 20 299 45 350 56 103 22 346 94 394 117 34 16 80 80 90 127 12 56 18
59 134 54 58 -3 148 -15 200 -27z m-382 -3 c-3 -7 -11 -13 -18 -13 -7 0 -15 6
-17 13 -3 7 4 12 17 12 13 0 20 -5 18 -12z m-4599 -18 c-34 -20 -170 -60 -203
-60 -39 0 -53 12 -32 29 13 11 168 38 226 40 20 0 22 -2 9 -9z m-1279 -15 c12
-14 5 -55 -9 -55 -19 0 -60 -50 -55 -65 10 -24 -39 -69 -108 -100 -97 -44
-100 -14 -9 95 115 136 151 161 181 125z m839 -55 c43 -22 56 -43 41 -70 -6
-10 -10 -34 -10 -53 0 -19 -6 -40 -14 -46 -8 -6 -68 -18 -134 -26 -65 -7 -146
-20 -178 -28 -76 -19 -172 -28 -179 -17 -8 13 35 39 90 55 25 8 108 24 186 35
151 23 189 33 189 51 0 8 -19 10 -62 5 -203 -19 -198 -19 -198 -4 0 9 16 28
35 42 20 15 47 38 62 52 34 31 115 33 172 4z m3827 -45 c-21 -16 -76 -21 -76
-7 0 17 14 22 54 22 38 -1 40 -2 22 -15z m-4210 -16 c12 -20 -67 -87 -135
-115 -38 -16 -83 -44 -105 -66 -54 -54 -111 -85 -179 -97 -31 -6 -65 -15 -75
-20 -28 -15 -112 -25 -112 -13 0 25 84 70 163 87 24 5 27 8 17 20 -7 8 -20 15
-30 15 -27 0 -31 26 -10 53 28 35 121 73 250 101 63 14 129 29 145 35 41 13
63 13 71 0z m1644 -106 c33 -6 48 -14 57 -33 30 -60 5 -130 -47 -130 -28 0
-29 -2 -28 -44 5 -104 -123 -200 -309 -231 -24 -4 -45 -11 -49 -16 -6 -10 8
-11 114 -9 58 1 72 -2 72 -14 0 -25 -43 -66 -85 -81 -36 -12 -40 -17 -37 -43
3 -32 -13 -42 -74 -42 -48 0 -211 -45 -284 -78 -65 -29 -152 -60 -245 -86 -27
-8 -95 -31 -149 -50 -55 -20 -142 -47 -195 -61 -53 -13 -130 -36 -171 -50 -41
-14 -130 -39 -198 -55 -67 -17 -136 -37 -152 -45 -27 -14 -30 -14 -40 6 -18
33 -5 49 38 49 61 0 142 58 173 125 11 24 27 34 79 52 109 36 447 101 641 123
201 23 289 39 292 55 4 21 -206 16 -428 -10 -254 -30 -337 -46 -455 -85 -47
-15 -97 -31 -111 -34 -34 -7 -62 14 -57 44 3 24 7 26 70 53 22 10 44 29 53 47
12 23 22 30 37 28 33 -5 33 -26 1 -30 -35 -4 -33 -22 2 -26 37 -5 78 24 70 48
-7 22 -34 14 337 105 146 35 299 70 340 76 40 6 117 24 170 40 53 16 151 40
217 54 141 28 168 40 150 61 -16 20 -21 19 -228 -30 -102 -25 -249 -54 -326
-66 -253 -38 -645 -128 -746 -171 -27 -12 -55 -19 -62 -16 -8 3 -29 -4 -47
-14 -21 -13 -36 -17 -42 -11 -27 27 62 95 156 118 28 6 94 24 146 38 52 14
172 41 265 60 349 72 415 92 433 131 12 27 67 46 299 106 73 19 133 39 133 45
0 6 -7 17 -15 24 -25 21 -14 53 25 73 36 19 97 19 210 0z m-375 -64 c19 -30
-162 -98 -290 -110 -112 -10 -211 -40 -259 -78 -24 -19 -58 -34 -94 -41 -31
-5 -95 -19 -142 -30 -120 -27 -140 -30 -140 -19 0 27 287 133 510 189 69 17
166 44 215 60 124 40 188 49 200 29z m-1940 -28 c0 -23 -91 -82 -135 -88 -32
-5 -41 -2 -46 12 -10 24 6 46 52 73 45 26 129 28 129 3z m-105 -134 c0 -33
-115 -106 -167 -107 -47 0 -15 52 52 87 60 32 115 41 115 20z m280 -30 c0 -21
-62 -74 -112 -97 -41 -18 -48 -25 -48 -50 0 -19 -10 -36 -31 -55 -63 -52 -148
-82 -163 -56 -11 17 5 36 65 79 43 31 61 50 65 72 7 33 56 71 130 100 58 22
94 25 94 7z m3960 -132 c52 -14 118 -35 145 -47 28 -11 111 -38 185 -58 74
-21 143 -41 153 -45 34 -14 15 -86 -37 -134 -22 -21 -40 -25 -123 -32 -54 -4
-163 -8 -242 -9 -138 0 -144 1 -173 25 -17 14 -42 25 -59 25 -27 0 -29 -2 -19
-20 6 -11 20 -26 30 -33 54 -33 43 -36 -625 -157 -247 -45 -463 -88 -479 -96
-52 -25 -116 -14 -188 34 -75 49 -62 67 127 173 241 134 465 232 564 245 43 5
56 3 94 -19 24 -14 80 -33 125 -41 279 -54 252 -50 252 -37 0 5 -51 26 -112
47 -197 65 -217 103 -77 148 24 8 69 24 99 35 84 31 236 29 360 -4z m-4373
-19 c-11 -33 -150 -82 -190 -67 -19 7 -18 9 9 28 68 47 193 75 181 39z m3110
-110 c54 -14 110 -27 126 -30 59 -13 28 -42 -156 -143 -141 -77 -360 -177
-432 -198 -33 -9 -80 -23 -105 -30 -57 -17 -340 -28 -375 -15 -58 22 -37 62
68 131 34 22 77 41 103 45 25 3 55 15 67 25 l22 18 -38 1 c-20 0 -46 -6 -57
-12 -15 -9 -25 -10 -37 -2 -32 20 -24 34 34 60 32 14 75 35 95 45 20 11 58 19
83 19 29 0 79 13 138 36 204 81 299 91 464 50z m-3250 -33 c5 -11 -7 -28 -40
-56 -26 -21 -47 -46 -47 -55 0 -9 -10 -26 -22 -39 -17 -18 -18 -23 -6 -23 24
0 30 -30 13 -56 -10 -15 -25 -24 -41 -24 -24 0 -26 2 -20 34 10 51 -13 65 -70
43 -43 -16 -44 -16 -44 4 0 28 94 125 155 160 57 33 112 38 122 12z m223 -43
c0 -14 -48 -35 -58 -26 -8 9 26 36 45 36 7 0 13 -5 13 -10z m780 -33 c0 -23
-58 -74 -91 -81 -17 -3 -58 -6 -90 -6 -97 0 -75 32 51 76 74 26 130 31 130 11z
m-810 -72 c9 -11 10 -19 3 -26 -14 -14 -110 -25 -158 -18 l-40 5 35 16 c92 41
140 47 160 23z m2170 -20 c0 -3 -24 -17 -52 -30 -88 -41 -139 -28 -55 14 38
19 107 29 107 16z m2419 -74 c14 -9 26 -22 28 -28 14 -42 -317 -260 -542 -357
-70 -31 -98 -37 -215 -47 -158 -13 -724 2 -758 20 -14 7 -23 25 -27 55 -16
105 26 134 240 166 77 12 178 30 225 40 47 11 125 22 175 26 119 8 344 55 425
88 36 15 102 32 150 37 47 6 110 14 140 19 70 10 128 3 159 -19z m-3871 10
c30 -19 7 -45 -58 -67 -49 -18 -74 -33 -102 -66 -37 -41 -39 -42 -53 -24 -8
11 -15 31 -15 45 0 44 -12 53 -59 45 -35 -6 -45 -12 -56 -36 -10 -24 -13 -27
-19 -13 -11 29 -7 73 9 89 27 26 319 49 353 27z m-1174 -20 c11 -17 -5 -38
-39 -57 -28 -15 -37 -16 -47 -6 -16 16 -1 42 33 59 29 15 46 16 53 4z m2420
-9 c7 -12 -12 -80 -25 -87 -5 -4 -25 3 -45 15 -31 20 -40 21 -79 11 -79 -20
-128 -11 -92 16 15 12 84 30 157 42 76 12 78 12 84 3z m-1997 -43 c18 -51 16
-128 -2 -136 -31 -11 -55 26 -55 84 0 92 33 122 57 52z m-277 -19 c21 -40 -9
-77 -38 -48 -21 21 -7 68 20 68 4 0 12 -9 18 -20z m1978 -12 c-3 -7 -15 -15
-28 -16 -21 -3 -22 -2 -11 12 16 19 44 21 39 4z m-905 -15 c-7 -2 -21 -2 -30
0 -10 3 -4 5 12 5 17 0 24 -2 18 -5z m-1337 -15 c9 -14 -43 -60 -64 -56 -24 5
-27 28 -4 28 12 0 23 9 27 20 7 22 30 27 41 8z m2481 -34 c15 -11 28 -25 30
-31 4 -11 -115 -73 -141 -73 -26 0 -205 -60 -301 -100 -49 -21 -108 -42 -130
-46 -22 -4 -50 -13 -62 -21 -12 -8 -63 -23 -115 -34 -51 -11 -111 -24 -133
-29 -54 -12 -155 -12 -155 0 0 5 16 12 35 16 48 9 66 28 59 63 -4 18 -1 32 7
37 38 24 205 84 233 84 17 0 105 25 195 55 90 30 199 62 243 69 44 8 85 19 92
26 17 18 112 7 143 -16z m838 -4 c22 -11 47 -20 57 -20 10 0 42 -11 72 -24 55
-24 61 -33 80 -115 8 -37 -5 -81 -28 -96 -29 -19 -184 -63 -282 -80 -45 -8
-171 -23 -280 -35 -110 -11 -244 -25 -299 -31 -55 -5 -136 -16 -180 -24 -44
-8 -132 -19 -195 -24 -63 -6 -165 -21 -227 -33 -62 -12 -115 -19 -119 -15 -15
14 27 55 92 89 l68 36 -32 19 c-42 24 -40 37 8 57 51 20 86 20 94 1 7 -18 52
-20 63 -2 4 6 30 22 56 35 27 12 102 58 167 102 176 117 166 113 305 111 123
-2 256 14 400 48 104 25 133 25 180 1z m-2395 -31 c0 -24 -23 -21 -28 4 -2 10
3 17 12 17 10 0 16 -9 16 -21z m-1560 -84 c0 -16 -27 -32 -37 -22 -3 4 -3 13
0 22 8 20 37 20 37 0z m1714 9 c26 -10 18 -22 -20 -33 -54 -15 -87 5 -46 28
20 12 44 14 66 5z m-1260 -75 c41 -49 32 -63 -23 -34 -26 13 -41 33 -41 56 0
20 40 7 64 -22z m606 17 c0 -20 -19 -31 -32 -18 -6 6 -7 15 -4 21 10 16 36 13
36 -3z m1830 -46 c0 -17 -39 -50 -59 -50 -31 0 -33 17 -5 39 28 22 64 28 64
11z m-4319 -36 c12 -14 11 -16 -5 -13 -11 2 -21 10 -24 17 -5 17 13 15 29 -4z
m2347 -75 c-2 -36 -7 -44 -23 -44 -27 0 -31 34 -10 75 22 42 37 27 33 -31z
m-353 19 c-10 -45 -34 -71 -52 -57 -18 16 -16 32 8 63 30 38 52 35 44 -6z
m205 -11 c0 -51 -15 -71 -42 -56 -23 12 -24 56 -1 81 28 31 43 22 43 -25z
m-1422 11 c-2 -13 -10 -23 -18 -23 -8 0 -16 10 -18 23 -3 17 2 22 18 22 16 0
21 -5 18 -22z m2633 -80 c13 -24 7 -32 -20 -23 -17 5 -51 60 -51 82 0 10 61
-40 71 -59z m-3891 21 c0 -18 -35 -5 -38 14 -3 16 -1 17 17 7 12 -6 21 -15 21
-21z m3521 17 c-16 -19 -167 -82 -253 -106 -38 -10 -94 -35 -126 -54 -31 -20
-64 -36 -71 -36 -8 0 -28 -8 -45 -19 -56 -34 -70 -34 -104 -1 -40 38 -55 38
-82 0 -11 -16 -41 -44 -65 -61 -25 -18 -45 -35 -45 -39 0 -3 62 -5 138 -4 111
1 150 5 204 23 36 12 87 25 112 30 65 12 78 0 74 -69 -3 -50 -6 -56 -33 -69
-38 -18 -253 -20 -313 -2 -44 12 -102 7 -102 -10 0 -5 16 -9 35 -9 78 0 131
-61 66 -75 -16 -3 -44 -3 -63 0 -35 7 -96 -20 -164 -71 -32 -25 -64 -27 -64
-5 0 6 14 20 30 33 17 12 30 27 30 34 0 13 -59 34 -96 34 -58 0 -86 -13 -101
-47 -19 -46 -36 -37 -47 25 -7 36 -15 54 -28 58 -27 8 -22 29 17 73 54 59 41
97 -18 51 -31 -24 -45 -25 -69 -3 -16 14 -24 15 -72 3 -43 -10 -73 -10 -143
-1 -142 18 -197 40 -177 72 9 15 150 5 223 -16 29 -9 64 -15 79 -13 27 3 26 4
-17 36 -26 19 -56 32 -73 32 -44 0 -68 17 -68 48 0 16 6 36 13 46 11 15 16 16
47 3 19 -8 56 -17 82 -19 45 -5 47 -4 77 39 18 24 37 43 44 40 21 -7 20 -75
-2 -111 -12 -18 -21 -36 -21 -39 0 -13 60 -37 89 -37 17 0 46 -7 65 -17 29
-13 38 -14 51 -3 8 7 15 21 15 30 0 43 41 80 89 80 11 0 34 12 52 27 l32 27
-6 -24 c-3 -14 -13 -54 -21 -90 -9 -40 -22 -71 -35 -81 -25 -20 -27 -39 -5
-39 21 0 104 87 129 136 20 37 23 39 72 41 28 1 82 11 119 22 38 11 97 25 132
30 34 5 88 21 120 35 31 13 91 32 132 41 41 10 84 21 95 26 11 4 33 8 49 8 23
1 26 -1 17 -13z m-1393 -48 c20 -20 14 -30 -15 -26 -32 4 -46 38 -16 38 11 0
24 -5 31 -12z m-367 -27 c42 -43 36 -81 -11 -66 -21 7 -64 78 -53 89 13 13 36
5 64 -23z m1949 -1 c0 -6 -11 -10 -25 -10 -23 0 -34 18 -19 33 9 8 44 -11 44
-23z m2085 5 c14 -13 25 -28 25 -33 0 -25 -50 -79 -90 -99 -48 -23 -82 -26
-617 -54 l-211 -10 -36 23 c-61 40 -57 58 16 78 72 20 454 71 638 85 102 7
196 18 210 24 36 14 38 14 65 -14z m-4878 -21 c18 -7 38 -25 45 -39 11 -24 9
-29 -11 -45 -21 -15 -23 -23 -19 -69 6 -60 20 -80 41 -62 12 9 15 6 20 -16 3
-16 9 -37 13 -47 7 -17 4 -17 -24 4 -38 29 -62 21 -62 -20 0 -38 13 -64 56
-113 38 -41 44 -80 18 -108 -15 -17 -15 -20 0 -43 22 -35 20 -43 -13 -54 -36
-13 -74 -49 -66 -63 4 -5 -1 -21 -10 -36 -14 -21 -15 -30 -6 -51 10 -21 9 -28
-9 -47 -13 -13 -26 -51 -35 -99 -19 -99 -19 -130 1 -146 8 -8 14 -25 12 -39
-3 -22 -9 -26 -40 -29 -58 -5 -78 11 -78 63 0 59 -13 90 -55 127 -44 38 -43
65 2 93 38 24 39 33 13 103 -11 29 -25 95 -32 147 -11 84 -10 100 6 147 36
109 96 314 96 330 0 24 -19 33 -35 17 -19 -21 -76 -172 -89 -237 -22 -109 -62
-53 -50 70 9 105 35 146 119 190 69 36 78 44 89 81 5 15 12 17 38 12 18 -4 48
-13 65 -21z m3240 10 c6 -19 -26 -44 -56 -44 -36 0 -42 7 -29 36 10 21 18 24
47 22 19 -2 36 -8 38 -14z m-636 -34 c10 -6 19 -14 19 -19 0 -4 -53 -17 -117
-29 -116 -21 -243 -34 -243 -26 0 10 106 54 130 54 14 1 39 7 55 15 36 16 129
19 156 5z m-3032 -36 c3 -16 1 -17 -13 -5 -19 16 -21 34 -3 29 6 -3 14 -13 16
-24z m1176 -13 c36 -33 52 -40 101 -47 l58 -7 -39 -19 c-28 -15 -51 -19 -87
-16 -54 6 -84 27 -105 76 -27 64 10 70 72 13z m2565 10 c0 -9 -61 -41 -79 -41
-17 0 -13 28 7 39 21 13 72 14 72 2z m-3975 -20 c57 -20 64 -41 18 -54 -41
-12 -123 24 -123 54 0 25 37 25 105 0z m3651 -3 c4 -6 -3 -20 -17 -31 -22 -17
-24 -18 -27 -3 -4 18 14 46 29 46 4 0 11 -5 15 -12z m-3393 -39 c-8 -8 -14 -6
-22 9 -13 25 -2 37 18 17 11 -11 12 -18 4 -26z m557 -42 c0 -16 -3 -17 -15 -7
-8 7 -15 24 -15 39 1 25 1 25 15 7 8 -11 15 -29 15 -39z m3350 29 c0 -16 -18
-31 -27 -22 -8 8 5 36 17 36 5 0 10 -6 10 -14z m317 -13 c-9 -10 -29 -26 -45
-35 -29 -17 -31 -17 -56 3 -46 36 -35 49 46 49 67 0 70 -1 55 -17z m-3157 -27
c5 -13 15 -28 22 -33 7 -4 63 -8 123 -9 198 -2 260 -35 85 -45 -126 -8 -120
-7 -120 -18 0 -11 93 -33 140 -34 19 0 52 4 73 8 30 6 37 5 37 -8 0 -28 -72
-43 -139 -29 -78 16 -95 15 -115 -7 -26 -29 -17 -62 21 -75 59 -20 67 -52 18
-74 -16 -7 -28 -25 -35 -52 -13 -48 -24 -50 -45 -10 -12 23 -15 56 -13 136 2
93 0 108 -16 119 -24 18 -55 4 -86 -41 -22 -33 -25 -35 -37 -18 -20 28 -15 87
13 153 29 67 57 81 74 37z m1906 -11 c-5 -23 -3 -35 4 -35 18 0 68 29 73 42 2
7 7 10 11 6 11 -10 -20 -63 -54 -92 -38 -31 -66 -33 -73 -6 -7 25 -35 25 -67
0 -14 -11 -36 -20 -49 -20 l-24 0 24 26 c30 33 138 114 151 114 6 0 8 -14 4
-35z m-2146 6 c0 -20 -13 -41 -25 -41 -21 0 -28 19 -15 35 14 17 40 20 40 6z
m2440 -1 c-20 -13 -40 -13 -40 0 0 6 12 10 28 10 21 0 24 -2 12 -10z m2207 -4
c1 -1 4 -17 5 -36 3 -31 0 -34 -32 -42 -19 -5 -116 -6 -215 -2 -128 4 -234 1
-365 -10 -232 -20 -292 -32 -288 -54 3 -14 27 -19 153 -29 217 -17 226 -17
232 7 4 14 17 21 51 26 26 4 431 2 902 -5 l855 -12 24 -26 c34 -38 25 -98 -21
-136 -18 -15 -47 -40 -64 -55 -33 -28 -335 -149 -405 -162 -55 -10 -131 5
-148 30 -14 22 -46 27 -56 9 -4 -6 1 -16 11 -24 13 -9 16 -17 9 -24 -20 -20
-170 -101 -188 -101 -32 0 -17 51 23 78 43 29 49 42 17 42 -15 0 -49 -22 -93
-60 -85 -74 -151 -119 -184 -126 -14 -2 -45 -9 -70 -15 -66 -17 -125 -26 -219
-34 l-84 -7 8 39 c9 52 11 53 58 53 57 0 150 25 213 57 l51 26 32 -24 31 -23
28 22 c93 76 210 137 310 162 23 6 42 16 42 23 0 20 -81 55 -169 71 -97 19
-511 40 -599 32 -46 -5 -85 -18 -140 -47 -100 -52 -157 -59 -244 -30 l-65 22
-44 -21 c-71 -32 -207 -25 -216 12 -7 23 -26 23 -134 -4 -49 -12 -92 -19 -96
-15 -4 4 1 21 10 37 10 16 14 31 10 33 -5 3 -41 -6 -81 -20 -40 -14 -76 -22
-80 -18 -11 11 47 55 72 55 13 0 43 11 67 25 24 14 72 39 106 55 l63 30 -27
55 c-26 52 -26 55 -10 73 29 32 134 59 272 72 233 21 663 31 682 16z m568 -26
c271 -19 445 -37 454 -46 11 -11 -15 -13 -164 -16 -163 -3 -584 23 -686 43
-66 13 -84 22 -74 39 8 13 -10 13 470 -20z m-2655 11 c0 -19 -32 -41 -61 -41
-37 0 -37 6 4 30 34 21 57 26 57 11z m200 -11 c0 -15 -36 -30 -75 -30 -39 0
-40 15 -1 30 29 12 76 12 76 0z m156 -11 c8 -14 -18 -31 -30 -19 -9 9 0 30 14
30 5 0 12 -5 16 -11z m714 -20 c0 -12 -51 -34 -102 -43 -49 -9 -52 15 -5 38
36 18 107 22 107 5z m-299 -51 c-27 -21 -41 -23 -41 -5 0 16 40 37 54 29 5 -3
-1 -13 -13 -24z m-2537 15 c4 -5 26 -12 49 -18 28 -7 43 -16 45 -29 3 -15 1
-17 -14 -10 -11 5 -47 8 -82 6 -57 -2 -122 16 -122 34 0 17 108 32 124 17z
m-1034 -19 c0 -9 -7 -14 -17 -12 -25 5 -28 28 -4 28 12 0 21 -6 21 -16z m3270
9 c0 -10 -42 -53 -52 -53 -15 0 -8 39 10 49 20 12 42 14 42 4z m-3926 -69 c12
-4 13 -10 4 -23 -8 -14 -4 -27 26 -65 50 -66 61 -126 22 -126 -18 0 -135 86
-143 106 -3 9 5 27 21 43 32 34 33 41 1 41 -14 0 -25 4 -25 9 0 16 64 26 94
15z m1854 -27 c15 -24 15 -29 2 -37 -21 -13 -40 7 -40 42 0 35 15 33 38 -5z
m2587 5 c-6 -5 -30 -17 -55 -26 -54 -21 -69 -33 -80 -62 -7 -16 -15 -21 -29
-17 -12 3 -42 0 -67 -6 -49 -12 -65 -8 -46 11 17 17 234 106 262 107 14 1 20
-3 15 -7z m-1095 -15 c0 -7 -14 -26 -31 -43 -34 -31 -63 -89 -54 -104 10 -16
92 -11 142 8 27 10 84 41 128 69 87 54 125 71 125 54 0 -6 -5 -11 -10 -11 -6
0 -28 -18 -50 -40 -22 -22 -46 -40 -55 -40 -22 0 -68 -25 -121 -65 -25 -19
-62 -39 -83 -45 -21 -5 -45 -17 -52 -26 -11 -14 -10 -18 5 -29 17 -13 16 -14
-6 -29 -39 -26 -82 -30 -98 -11 -21 25 -18 89 4 114 45 49 -35 34 -124 -24
-53 -34 -112 -46 -124 -26 -9 13 11 24 103 61 66 26 99 47 150 95 109 101 151
127 151 92z m-182 -12 c16 -15 -83 -109 -126 -120 -14 -3 -41 -19 -59 -35 -30
-26 -87 -50 -122 -50 -8 0 -38 -13 -68 -30 -29 -16 -57 -30 -62 -30 -5 0 -25
23 -45 50 -27 37 -42 50 -61 50 -38 0 -100 -35 -125 -70 -24 -34 -50 -40 -50
-11 0 32 96 167 127 179 16 6 75 13 132 16 l104 5 -22 -22 c-26 -29 -27 -64
-2 -72 27 -8 85 18 113 50 30 34 69 55 106 55 16 0 40 8 53 19 13 10 31 21 39
24 14 5 60 0 68 -8z m816 0 c37 -20 120 -20 136 0 17 21 30 19 30 -4 0 -36
-127 -116 -218 -137 -100 -24 -110 6 -22 69 33 23 60 48 60 55 0 16 -4 15 -51
-9 -23 -11 -43 -18 -46 -16 -10 11 18 46 39 50 40 7 42 7 72 -8z m-515 -8 c8
-10 4 -20 -17 -39 -79 -74 -143 -57 -68 18 36 36 66 43 85 21z m-2064 -6 c3
-5 1 -13 -5 -16 -15 -9 -43 3 -35 15 8 13 32 13 40 1z m-1717 -50 c3 -16 -1
-22 -10 -19 -7 3 -15 15 -16 27 -3 16 1 22 10 19 7 -3 15 -15 16 -27z m2052
10 c0 -5 -7 -12 -16 -15 -32 -12 -265 -38 -289 -32 -36 9 -31 34 8 40 89 15
297 20 297 7z m692 -18 c25 -22 23 -51 -8 -98 -36 -54 -95 -115 -106 -109 -23
14 -1 87 34 112 10 8 18 25 18 43 0 35 16 69 32 69 6 0 20 -7 30 -17z m1238 2
c-13 -16 -40 -20 -40 -7 0 14 12 22 33 22 16 0 17 -3 7 -15z m104 -22 c-20
-14 -36 -13 -41 4 -5 13 25 22 46 15 11 -4 10 -8 -5 -19z m-1959 -41 l50 -16
-44 -13 c-25 -7 -50 -18 -55 -24 -16 -16 18 -37 73 -45 80 -12 101 -36 64 -76
-25 -28 -52 -22 -143 31 l-85 49 -36 -34 -36 -35 -59 44 c-32 24 -67 53 -77
65 -18 20 -18 21 3 32 12 6 58 15 103 20 45 5 93 13 107 19 28 11 62 7 135
-17z m194 4 c15 -14 44 -31 66 -38 62 -20 59 -44 -18 -126 -75 -80 -101 -124
-93 -158 5 -18 2 -24 -10 -24 -23 0 -74 39 -74 57 0 9 25 45 56 82 31 36 61
75 67 88 13 29 3 53 -23 53 -54 0 -75 36 -43 72 22 24 42 23 72 -6z m-1254
-12 c-17 -13 -45 -9 -45 6 0 11 31 18 49 12 11 -4 10 -8 -4 -18z m87 -1 c32
-29 14 -69 -19 -41 -13 10 -17 10 -20 1 -6 -16 -43 -17 -43 -3 0 12 45 60 56
60 4 0 16 -7 26 -17z m-1073 -4 c37 -13 43 -46 9 -51 -46 -6 -88 4 -99 24 -19
36 26 49 90 27z m4229 -56 c53 -13 1 -43 -74 -43 -74 0 -145 40 -96 54 18 5
132 -2 170 -11z m-3208 -39 c0 -8 -6 -14 -13 -14 -19 0 -27 10 -20 25 6 17 33
8 33 -11z m3560 18 c0 -10 -50 -35 -57 -28 -3 2 8 11 24 20 34 18 33 18 33 8z
m230 -14 c82 -42 44 -86 -63 -73 -50 6 -97 23 -97 35 0 19 65 58 100 59 9 1
36 -9 60 -21z m416 7 c-22 -17 -66 -20 -66 -6 0 13 19 19 55 20 29 0 29 0 11
-14z m-1248 -11 c31 -21 28 -58 -5 -82 -77 -53 -180 -68 -219 -31 -15 14 -42
23 -90 28 l-69 7 50 23 c132 63 286 88 333 55z m2222 -2 c0 -4 -40 -29 -90
-55 -49 -27 -90 -44 -90 -39 0 23 72 81 108 87 20 4 42 8 47 10 18 6 25 5 25
-3z m-4680 -41 c0 -32 -30 -61 -62 -61 -13 0 -18 8 -18 29 0 36 23 61 56 61
20 0 24 -5 24 -29z m2833 15 c8 -20 -16 -37 -61 -43 -38 -5 -82 9 -82 26 0 28
133 43 143 17z m793 -23 c-10 -24 11 -32 73 -26 l56 5 -33 -22 c-43 -30 -62
-68 -62 -129 0 -43 4 -53 25 -67 33 -21 32 -30 -7 -54 -51 -31 -64 -26 -77 27
-10 37 -25 59 -78 109 -36 35 -62 67 -59 73 3 5 20 12 36 16 16 4 32 11 36 16
9 16 -24 22 -64 12 -39 -10 -82 -1 -82 17 0 5 15 10 33 10 17 1 57 7 87 15 30
7 70 14 89 14 27 1 32 -2 27 -16z m814 11 c0 -12 -45 -43 -62 -44 -27 0 -22
17 10 34 28 16 52 20 52 10z m-5095 -14 c-3 -5 -13 -10 -21 -10 -8 0 -14 5
-14 10 0 6 9 10 21 10 11 0 17 -4 14 -10z m4650 1 c3 -5 1 -13 -5 -16 -15 -9
-43 3 -35 15 8 13 32 13 40 1z m-2797 -45 c15 -15 13 -16 -25 -16 -24 0 -46
-6 -53 -15 -7 -8 -16 -15 -21 -15 -12 0 -22 46 -14 61 10 16 93 5 113 -15z
m1450 12 c7 -7 12 -21 12 -33 0 -45 -49 -58 -115 -31 -42 18 -43 28 -9 55 30
23 93 28 112 9z m262 -7 c0 -20 -18 -31 -51 -31 -25 0 -24 15 3 34 30 21 48
20 48 -3z m355 -26 c0 -5 -19 -19 -42 -30 -57 -28 -72 -42 -49 -51 10 -4 36 6
69 26 47 29 55 31 88 21 19 -6 44 -20 54 -31 10 -11 27 -20 37 -20 13 0 24
-11 31 -30 9 -23 17 -30 39 -30 24 0 28 -4 28 -30 0 -38 -29 -67 -73 -75 -60
-11 -71 -5 -81 48 -5 30 -13 47 -22 47 -8 0 -42 -14 -76 -31 -37 -19 -69 -28
-82 -25 -29 7 -104 76 -90 82 6 3 20 11 30 19 18 14 18 14 -5 15 -13 0 -41 -5
-61 -11 -33 -10 -42 -9 -67 9 -15 11 -46 27 -68 37 -37 15 -39 17 -21 30 10 8
40 19 68 24 89 20 121 12 91 -21 -15 -17 -15 -18 9 -18 38 0 124 28 138 46 14
16 55 16 55 -1z m560 6 c6 -10 -21 -41 -36 -41 -16 0 -10 29 9 39 21 13 20 13
27 2z m-5017 -37 c3 -34 -11 -60 -27 -50 -12 8 -15 68 -4 80 13 13 28 -1 31
-30z m1690 19 c23 -3 45 -9 47 -13 10 -17 -8 -40 -31 -40 -22 0 -124 55 -124
67 0 3 15 3 33 -1 17 -4 51 -9 75 -13z m894 -28 c9 -19 8 -29 -6 -50 -9 -14
-21 -25 -26 -25 -22 0 -41 76 -23 93 15 15 44 6 55 -18z m3658 5 c23 -42 -78
-103 -107 -65 -7 11 -13 27 -13 36 0 44 99 68 120 29z m-6360 -9 c0 -21 -44
-41 -91 -41 -31 0 -32 2 -23 38 6 19 13 22 60 22 46 0 54 -3 54 -19z m3454 6
c100 -17 99 -37 -1 -36 -92 1 -185 19 -191 37 -5 16 96 15 192 -1z m620 4 c9
-14 -52 -61 -79 -61 -30 0 -50 23 -33 38 13 10 71 29 95 31 6 1 14 -3 17 -8z
m1366 -1 c0 -13 -28 -25 -38 -16 -3 4 0 11 8 16 20 13 30 12 30 0z m-4197 -29
c31 -37 44 -96 52 -233 4 -84 11 -119 30 -160 28 -61 31 -84 11 -91 -8 -3 -18
-22 -22 -41 -12 -65 -34 -38 -49 59 -4 28 -10 123 -14 212 -6 140 -10 165 -26
183 -14 16 -28 21 -52 18 -29 -4 -32 -2 -27 17 11 37 34 65 53 65 11 0 30 -13
44 -29z m-1420 -42 c-28 -28 -64 8 -48 48 5 14 10 13 33 -10 19 -20 23 -30 15
-38z m2277 35 c0 -17 -22 -14 -28 4 -2 7 3 12 12 12 9 0 16 -7 16 -16z m980
-17 c21 -38 1 -57 -34 -33 -28 18 -33 35 -14 54 17 17 30 11 48 -21z m2120 3
c0 -34 10 -37 44 -15 32 21 85 35 91 25 3 -5 -15 -23 -40 -40 -25 -17 -56 -42
-68 -56 l-24 -25 -37 21 c-20 12 -45 20 -55 17 -10 -2 -25 -1 -32 4 -33 20 45
99 99 99 18 0 22 -6 22 -30z m-1473 -13 c12 -11 20 -23 18 -27 -3 -4 -13 -62
-24 -128 -11 -67 -26 -134 -34 -149 -8 -15 -17 -53 -20 -83 -3 -30 -26 -152
-52 -270 -41 -195 -56 -258 -86 -372 -5 -20 -25 -56 -45 -79 -41 -49 -94 -149
-94 -178 0 -10 9 -29 19 -42 19 -23 19 -24 0 -48 -10 -13 -19 -33 -19 -45 0
-36 -23 -57 -68 -63 -77 -10 -117 42 -73 98 22 28 27 52 41 178 6 52 19 113
29 136 10 22 21 63 25 90 4 26 20 71 36 99 15 28 35 83 45 121 9 39 25 84 36
101 10 17 19 45 19 61 0 17 9 42 20 56 25 32 70 127 70 148 0 9 -7 22 -15 29
-31 26 -5 100 36 100 23 0 24 13 3 45 -28 43 0 97 33 64 6 -6 16 -8 22 -5 16
10 13 42 -7 84 -20 40 -18 67 6 95 18 20 46 15 79 -16z m479 -8 c53 -26 38
-89 -22 -89 -12 0 -35 7 -50 15 -16 8 -45 15 -66 15 -37 0 -48 12 -40 43 9 36
116 45 178 16z m1165 -19 c-13 -11 -30 -20 -39 -20 -13 0 -12 3 3 20 10 11 28
20 39 20 20 -1 20 -1 -3 -20z m-5461 -38 c0 -15 -24 -32 -46 -32 -25 0 -39 14
-29 30 7 12 75 14 75 2z m4434 -25 c9 -15 7 -22 -13 -38 -48 -40 -94 -2 -51
41 24 24 48 23 64 -3z m-1335 -51 c20 -24 4 -33 -27 -15 -31 17 -39 43 -21 66
12 14 15 13 24 -9 5 -14 16 -33 24 -42z m146 25 c0 -18 -10 -29 -37 -43 -59
-31 -80 1 -33 48 32 32 70 30 70 -5z m-1119 -20 c-9 -14 -33 -14 -41 -1 -4 6
-1 18 6 26 11 13 14 13 27 0 8 -8 11 -19 8 -25z m3654 23 c0 -4 -8 -13 -17
-20 -17 -12 -16 -15 10 -39 15 -14 25 -30 22 -36 -7 -10 -39 -12 -72 -3 -46
13 -17 104 33 104 13 0 24 -3 24 -6z m520 -3 c0 -12 -29 -35 -36 -28 -11 10 5
37 21 37 8 0 15 -4 15 -9z m-6592 -33 c-5 -15 -48 -24 -48 -10 0 14 12 22 33
22 10 0 17 -5 15 -12z m962 -18 c0 -35 -25 -42 -35 -10 -8 24 1 40 21 40 9 0
14 -11 14 -30z m570 -20 c12 -46 0 -83 -25 -74 -35 14 -35 114 -1 114 9 0 20
-16 26 -40z m5390 31 c0 -11 -50 -24 -58 -16 -8 8 19 25 41 25 9 0 17 -4 17
-9z m-1026 -7 c22 -8 20 -34 -2 -34 -19 0 -42 18 -42 32 0 9 22 10 44 2z
m-624 -13 c0 -11 -25 -21 -53 -21 -21 1 -21 1 3 15 29 16 50 19 50 6z m-946
-26 c14 -21 20 -23 42 -15 35 14 44 13 44 -5 0 -8 -11 -22 -25 -31 -14 -9 -25
-22 -25 -29 0 -15 -35 -47 -43 -39 -3 3 -2 17 4 30 9 27 5 31 -41 36 -31 4
-38 33 -14 59 23 25 38 24 58 -6z m-1074 6 c0 -10 -30 -24 -37 -17 -3 3 -2 9
2 15 8 13 35 15 35 2z m1718 -23 c10 -10 14 -10 21 0 10 16 41 -55 41 -93 0
-23 -4 -25 -48 -25 -56 0 -112 -15 -124 -32 -15 -24 -8 -69 17 -112 21 -36 23
-45 12 -55 -11 -8 -23 0 -55 40 -68 84 -54 141 43 174 69 23 83 47 36 63 -31
11 -41 36 -18 45 23 10 63 7 75 -5z m-2039 -44 c28 -47 31 -77 9 -82 -22 -4
-58 52 -58 91 0 38 24 34 49 -9z m-2572 6 c23 -18 27 -18 48 -4 13 9 32 14 42
12 31 -6 20 -29 -22 -43 -69 -24 -114 -23 -146 5 -24 20 -24 20 -5 35 27 20
53 19 83 -5z m1547 4 c9 -22 8 -24 -9 -24 -8 0 -15 9 -15 20 0 24 15 27 24 4z
m846 -13 c0 -28 -22 -61 -40 -61 -17 0 -40 32 -40 54 0 30 7 36 47 36 30 0 33
-3 33 -29z m1881 9 c-24 -21 -71 -27 -71 -10 0 15 32 29 65 29 l30 0 -24 -19z
m1249 -6 c22 -19 30 -34 28 -52 -2 -14 -8 -27 -15 -29 -15 -5 -93 70 -93 90 0
26 44 21 80 -9z m891 -12 c-21 -40 -138 -140 -184 -157 -112 -42 -56 33 102
136 72 48 100 55 82 21z m-5891 -8 c0 -9 -7 -14 -17 -12 -25 5 -28 28 -4 28
12 0 21 -6 21 -16z m5269 -7 c17 -21 3 -27 -60 -27 -57 0 -57 0 -64 -32 -8
-37 -31 -68 -52 -68 -18 0 -16 17 3 28 13 7 16 19 12 55 l-5 46 51 4 c28 2 63
4 77 5 15 1 32 -4 38 -11z m-5401 -30 c4 -21 -27 -35 -38 -17 -12 19 0 42 19
38 9 -2 17 -11 19 -21z m4970 3 c36 -22 38 -43 5 -48 -27 -4 -68 30 -60 51 8
22 15 21 55 -3z m-1408 -65 c0 -14 -4 -25 -10 -25 -5 0 -10 11 -10 25 0 14 5
25 10 25 6 0 10 -11 10 -25z m-1506 -1 c9 -3 16 -10 16 -16 0 -14 -43 -5 -48
10 -4 13 7 15 32 6z m-1229 -119 c20 -55 50 -124 66 -153 23 -42 28 -60 23
-90 -5 -35 -3 -40 45 -84 54 -50 65 -82 31 -91 -14 -3 -20 -14 -20 -32 0 -39
17 -63 55 -80 36 -14 44 -32 23 -53 -21 -21 -54 -13 -91 24 -46 46 -73 104
-82 178 -4 33 -22 109 -41 170 -48 154 -81 347 -55 321 5 -6 26 -55 46 -110z
m-1269 77 c-8 -9 -19 -13 -22 -9 -10 9 16 38 28 31 6 -4 4 -13 -6 -22z m6594
12 c0 -9 -7 -14 -17 -12 -25 5 -28 28 -4 28 12 0 21 -6 21 -16z m-1305 -27
c18 -25 18 -37 5 -71 -8 -23 -12 -24 -40 -15 -74 26 -113 -26 -130 -177 -13
-118 -38 -195 -104 -318 -30 -56 -64 -126 -75 -157 -12 -31 -31 -65 -43 -75
-32 -28 -109 -150 -158 -249 -42 -84 -52 -132 -37 -165 5 -11 -2 -21 -23 -33
-48 -29 -67 -54 -95 -131 -14 -39 -35 -81 -47 -93 -26 -27 -20 -57 12 -61 14
-2 29 -8 34 -13 6 -5 22 -9 36 -9 40 0 100 -78 100 -131 0 -20 -1 -21 -22 -5
-13 9 -40 23 -60 32 -31 13 -38 22 -38 43 0 59 -53 70 -76 16 -21 -50 -18 -73
9 -77 18 -2 23 -10 25 -40 4 -43 -4 -47 -41 -18 -14 11 -28 20 -31 20 -3 0 -6
-26 -8 -57 -4 -70 -21 -78 -70 -34 -31 28 -33 33 -32 93 1 83 31 213 59 263
13 22 46 108 75 190 29 83 91 231 140 330 48 99 91 191 95 205 4 14 38 88 75
165 37 77 98 210 135 295 72 167 111 237 146 259 20 12 25 11 40 -8 10 -12 20
-27 22 -34 9 -20 27 14 27 50 0 22 5 33 18 35 30 7 62 -4 77 -25z m-3146 -56
c13 -84 7 -131 -15 -131 -15 0 -34 60 -34 111 0 40 18 99 30 99 4 0 13 -36 19
-79z m3283 54 c15 -14 30 -36 34 -49 7 -28 -13 -135 -28 -153 -14 -18 -44 0
-64 39 -15 30 -15 34 6 86 18 44 21 59 12 73 -15 24 -15 29 1 29 7 0 24 -11
39 -25z m-5326 7 c24 -16 45 -76 45 -128 0 -65 -4 -74 -40 -74 -48 0 -64 29
-59 108 4 82 23 115 54 94z m6071 -13 c22 -19 15 -35 -33 -78 -75 -65 -153
-113 -234 -142 -113 -40 -166 -62 -311 -130 -85 -40 -150 -64 -181 -67 -48 -5
-48 -4 -48 25 0 38 53 119 91 138 15 8 39 15 52 15 14 0 27 7 31 15 4 11 13
14 31 9 16 -4 34 0 50 10 13 9 48 21 77 27 82 16 148 39 213 75 33 17 71 35
85 39 14 4 42 25 62 47 33 36 42 40 70 34 17 -3 37 -11 45 -17z m-1497 -18 c0
-10 -24 -21 -46 -21 -20 0 -17 18 4 23 29 8 42 7 42 -2z m1820 -21 c-18 -11
-32 -8 -37 7 -5 14 29 23 42 11 6 -6 5 -12 -5 -18z m-4916 11 c9 -13 -3 -39
-21 -45 -22 -9 -53 3 -53 19 0 26 61 47 74 26z m1410 -27 c10 -27 -12 -56 -41
-52 -38 4 -54 35 -29 54 26 19 62 18 70 -2z m-2724 -41 c0 -42 -52 -113 -82
-113 -15 0 -8 32 12 57 11 14 20 34 20 45 0 11 5 29 11 40 11 21 12 21 25 3 8
-10 14 -25 14 -32z m218 35 c-3 -7 -11 -13 -18 -13 -7 0 -15 6 -17 13 -3 7 4
12 17 12 13 0 20 -5 18 -12z m3477 3 c10 -17 -12 -21 -25 -6 -10 12 -10 15 3
15 9 0 18 -4 22 -9z m1735 -26 c-12 -15 -40 -21 -40 -8 0 3 8 15 17 25 21 23
43 7 23 -17z m-2823 -11 c4 -12 -76 -44 -110 -44 -26 0 -18 31 13 47 29 15 92
13 97 -3z m3529 2 c14 -11 16 -18 8 -26 -15 -15 -54 4 -54 25 0 19 21 19 46 1z
m318 -49 c-33 -46 -49 -49 -49 -10 0 20 9 34 35 51 45 30 51 13 14 -41z
m-1158 28 c-22 -17 -36 -19 -36 -7 0 14 12 22 34 22 21 -1 21 -1 2 -15z
m-4018 -13 c2 -7 -6 -12 -17 -12 -21 0 -27 11 -14 24 9 9 26 2 31 -12z m822
-11 c0 -21 -46 -81 -61 -81 -17 0 -9 47 12 74 24 31 49 34 49 7z m-1641 -8
c-30 -41 -76 -86 -106 -104 -18 -11 -49 -43 -69 -70 -33 -45 -38 -49 -47 -32
-19 35 -38 43 -97 36 -54 -5 -59 -4 -75 21 -13 20 -25 26 -53 26 l-37 0 26 26
c26 26 27 26 100 13 102 -17 154 -6 262 51 101 54 116 59 96 33z m661 -4 c0
-11 -4 -18 -10 -14 -5 3 -7 12 -3 20 7 21 13 19 13 -6z m3348 -19 c34 -21 40
-38 20 -58 -19 -19 -45 -14 -67 14 -44 56 -16 82 47 44z m-1383 -19 c10 -17
-12 -21 -25 -6 -10 12 -10 15 3 15 9 0 18 -4 22 -9z m-365 -16 c0 -2 -13 -11
-30 -20 -30 -16 -40 -9 -18 13 12 12 48 17 48 7z m116 -6 c3 -6 0 -15 -7 -20
-22 -13 -49 -11 -49 5 0 23 43 35 56 15z m3144 -14 c11 -13 8 -15 -13 -15 -26
0 -42 12 -30 24 11 11 30 7 43 -9z m-3779 -50 c0 -5 -7 -12 -16 -13 -23 -5
-47 6 -40 19 8 13 56 8 56 -6z m4199 -5 c0 -5 -9 -10 -21 -10 -11 0 -17 5 -14
10 3 6 13 10 21 10 8 0 14 -4 14 -10z m-4670 -19 c0 -10 -30 -24 -37 -17 -3 3
-2 9 2 15 8 13 35 15 35 2z m521 -32 c-42 -34 -58 -16 -20 22 16 16 24 18 33
9 8 -9 5 -16 -13 -31z m3793 25 c21 -21 20 -41 -2 -53 -23 -12 -42 3 -42 34 0
37 19 45 44 19z m-6049 -34 c31 -89 31 -88 -10 -50 -43 41 -58 66 -50 81 14
22 48 4 60 -31z m2688 30 c59 0 75 -14 33 -29 -38 -15 -178 -18 -183 -4 -6 16
47 44 72 38 11 -3 46 -5 78 -5z m3233 -34 c45 -44 56 -82 28 -93 -18 -6 -56
27 -85 74 -24 38 -34 36 -42 -7 -7 -34 -23 -38 -67 -15 -45 23 -40 1 25 -106
31 -50 76 -130 100 -178 64 -128 86 -151 143 -151 64 0 114 -31 110 -67 -5
-39 -30 -50 -70 -30 -18 9 -52 21 -75 27 -60 15 -97 50 -121 117 -29 78 -83
167 -105 171 -32 6 -30 -26 5 -67 40 -47 85 -171 61 -171 -8 0 -22 4 -32 10
-18 9 -90 124 -165 263 -36 65 -64 90 -51 45 13 -47 85 -189 126 -250 66 -99
97 -128 138 -128 23 0 52 -11 80 -30 27 -18 57 -30 77 -30 43 0 52 -17 17 -31
-73 -29 -77 -46 -16 -69 64 -24 66 -28 42 -98 -19 -57 -24 -62 -57 -71 -43
-11 -322 -30 -462 -32 -117 -1 -144 -8 -148 -37 -4 -29 21 -34 171 -36 117 -1
283 20 367 46 19 6 68 12 110 14 85 3 204 28 237 49 28 19 47 19 63 0 21 -26
57 -17 101 25 33 31 50 40 77 40 19 0 60 12 92 26 76 34 111 30 126 -15 17
-52 39 -64 109 -57 49 5 71 2 120 -19 62 -25 76 -47 43 -69 -13 -8 -24 -5 -47
12 -44 32 -91 29 -124 -8 -30 -33 -45 -37 -53 -16 -3 7 -23 16 -44 20 -23 4
-54 19 -75 38 -31 26 -41 30 -62 22 -33 -11 -64 -53 -66 -88 -1 -14 -4 -26 -7
-26 -2 0 -19 15 -37 32 -30 29 -36 31 -54 20 -18 -11 -24 -11 -40 4 -30 27
-49 3 -49 -63 l0 -54 -34 7 c-51 9 -62 -3 -30 -32 21 -20 25 -31 20 -55 -3
-17 -15 -42 -26 -56 -13 -17 -20 -41 -20 -70 0 -30 -5 -45 -15 -49 -26 -10
-41 13 -64 100 -40 151 -113 230 -214 231 -48 0 -52 -2 -60 -30 -86 -278 -230
-495 -376 -569 -28 -15 -51 -31 -51 -36 0 -5 -14 -22 -30 -37 -36 -32 -70 -84
-70 -107 0 -10 8 -16 23 -16 29 0 44 11 48 35 7 35 42 24 63 -20 31 -66 56
-73 56 -16 0 22 4 42 9 46 12 7 65 -50 88 -95 20 -38 31 -50 51 -50 28 0 22
33 -16 93 -78 119 -79 156 -5 189 63 28 168 23 238 -12 45 -23 50 -28 49 -57
-2 -36 -89 -173 -162 -254 -59 -66 -79 -65 -153 6 -60 57 -79 67 -79 38 0 -25
44 -77 100 -118 77 -56 60 -80 -35 -50 -61 20 -77 15 -52 -13 20 -22 22 -38 4
-45 -20 -8 -35 5 -42 36 -4 15 -15 32 -24 37 -15 9 -15 11 2 20 9 6 17 17 17
25 0 20 -40 45 -72 45 -37 0 -45 18 -13 30 38 14 21 30 -31 30 -38 0 -46 4
-56 25 -10 21 -48 37 -48 19 0 -12 71 -112 144 -203 42 -52 76 -103 76 -113 0
-20 -28 -38 -59 -38 -12 0 -21 -4 -21 -10 0 -5 15 -10 34 -10 37 0 50 -11 60
-52 10 -43 45 -36 112 21 41 35 71 52 99 57 46 7 105 35 124 58 17 20 129 22
154 3 16 -11 16 -16 2 -64 -16 -55 -69 -140 -97 -157 -17 -11 -20 -10 -111 27
-24 10 -30 8 -57 -19 -39 -38 -33 -55 30 -81 56 -24 63 -39 23 -49 -16 -4 -36
-14 -45 -22 -16 -14 -20 -13 -39 4 -12 10 -30 36 -40 56 -29 57 -109 111 -109
74 0 -22 79 -134 100 -141 22 -7 34 -34 17 -40 -6 -2 -33 -6 -58 -9 -57 -6
-95 15 -137 76 -17 25 -48 56 -70 71 -48 31 -61 61 -38 86 30 33 19 66 -40
133 -56 63 -144 201 -144 226 0 7 16 22 35 33 42 25 37 39 -13 39 -45 0 -67
13 -59 34 4 10 18 16 41 16 84 0 85 22 6 91 -58 50 -100 104 -100 127 0 23 35
31 68 15 31 -15 34 -15 55 6 13 11 36 21 51 21 l27 0 -20 26 c-26 33 -27 69
-1 101 19 25 19 25 -2 66 -19 36 -23 64 -28 191 l-6 148 -32 29 c-18 16 -42
29 -54 29 -13 0 -47 27 -90 72 -85 87 -101 86 -106 -10 -3 -55 -6 -63 -33 -83
-39 -28 -34 -52 11 -59 46 -7 48 -24 16 -159 -39 -162 -38 -183 12 -234 69
-71 79 -136 16 -106 -16 8 -31 25 -34 39 -8 35 -43 38 -69 4 l-21 -26 -142 17
c-235 27 -256 38 -194 100 24 24 36 45 36 64 0 32 27 60 86 89 47 24 63 40 73
79 10 37 52 40 61 4 3 -14 11 -26 17 -28 19 -7 34 34 48 126 7 47 21 106 30
131 14 38 15 51 4 82 -24 74 10 202 53 196 16 -2 24 -14 32 -48 10 -42 15 -47
68 -72 45 -21 62 -36 78 -68 20 -40 58 -58 47 -22 -44 133 -28 163 55 106 20
-15 44 -24 53 -21 12 5 9 18 -20 78 -43 91 -53 150 -31 184 20 31 34 32 45 2
9 -22 107 -84 118 -73 12 12 -10 57 -52 108 -25 29 -57 76 -72 105 l-25 53 16
87 c9 49 19 101 21 117 7 43 23 56 66 56 41 0 52 14 19 25 -11 3 -20 10 -20
15 0 23 27 20 82 -9 34 -17 70 -31 81 -31 10 0 59 25 107 55 81 52 134 71 204
74 21 1 40 -10 72 -43z m-2880 8 c-12 -45 -68 -154 -95 -182 l-26 -27 -3 23
c-4 25 36 118 75 175 31 44 59 51 49 11z m1272 8 c2 -6 -16 -23 -38 -39 -41
-27 -43 -27 -56 -8 -23 31 -13 49 31 56 49 7 58 6 63 -9z m2441 -11 c19 -12 4
-31 -25 -31 -32 0 -66 18 -59 31 8 11 65 12 84 0z m-397 -53 c-9 -9 -62 6 -62
18 0 4 8 13 18 20 15 12 20 10 35 -8 10 -12 14 -25 9 -30z m-2208 1 c14 -17
26 -37 26 -44 0 -22 -56 -71 -164 -147 -168 -116 -217 -134 -263 -96 -32 27
-14 46 80 82 152 59 221 114 204 160 -8 22 -24 20 -44 -4 -38 -44 -61 -4 -24
41 l18 23 51 -22 c68 -29 75 -28 67 8 -9 41 15 40 49 -1z m1952 -22 c30 -26
28 -57 -5 -57 -19 0 -71 52 -71 71 0 18 49 9 76 -14z m-3361 -7 c4 -6 -9 -25
-27 -43 -31 -31 -33 -31 -36 -10 -7 45 43 86 63 53z m1812 -2 c-3 -7 -26 -64
-51 -127 -25 -63 -68 -152 -96 -197 -60 -97 -120 -224 -120 -253 0 -32 -36
-46 -67 -25 -26 16 -27 16 -50 -10 -13 -15 -23 -34 -23 -42 0 -8 -5 -14 -11
-14 -17 0 -7 208 11 242 8 15 30 37 49 50 19 13 44 40 56 62 12 21 42 59 66
85 25 25 63 69 84 96 58 74 127 145 143 145 8 0 12 -6 9 -12z m-2027 -38 c0
-26 -34 -60 -60 -60 -29 0 -24 25 11 54 37 31 49 33 49 6z m3708 2 c3 -9 -3
-13 -19 -10 -12 1 -24 9 -27 16 -3 9 3 13 19 10 12 -1 24 -9 27 -16z m-347
-22 c14 -8 19 -21 19 -55 0 -25 -4 -45 -9 -45 -17 0 -73 80 -67 95 6 17 29 19
57 5z m1464 -19 c10 -17 -12 -21 -25 -6 -10 12 -10 15 3 15 9 0 18 -4 22 -9z
m-5832 -47 c23 -25 61 -57 84 -71 24 -14 43 -29 43 -33 0 -5 21 -34 48 -66
l47 -59 3 -126 c2 -69 -1 -159 -7 -199 -9 -70 -9 -76 20 -139 48 -105 70 -197
76 -315 6 -102 8 -111 35 -142 l29 -33 -53 -65 c-39 -48 -56 -62 -65 -54 -21
17 -53 135 -68 248 -18 134 -34 185 -107 350 -72 163 -78 188 -49 228 26 38
26 42 -3 100 -13 26 -38 97 -56 157 -17 61 -40 124 -51 141 -23 38 -25 87 -3
108 23 24 31 20 77 -30z m4538 36 c12 -7 19 -21 19 -40 0 -18 11 -42 30 -63
37 -42 37 -47 3 -47 -36 0 -47 8 -66 45 -8 17 -32 46 -52 65 l-36 35 38 6 c21
3 39 7 41 8 2 0 12 -4 23 -9z m-874 -34 c24 -20 25 -26 14 -40 -19 -23 -38
-20 -57 9 -16 25 -13 55 5 55 5 0 22 -11 38 -24z m1113 -1 c0 -16 -27 -32 -37
-22 -3 4 -3 13 0 22 8 20 37 20 37 0z m987 -72 c4 -10 -2 -23 -16 -34 -18 -15
-27 -17 -44 -7 -21 11 -21 11 7 34 32 28 44 30 53 7z m-4372 -13 c4 -6 1 -18
-6 -26 -11 -13 -14 -13 -27 0 -8 8 -11 19 -8 25 9 14 33 14 41 1z m725 -39 c0
-10 -6 -26 -14 -36 -12 -16 -16 -17 -30 -6 -21 17 -20 40 1 63 18 20 43 8 43
-21z m1542 2 c28 -25 21 -142 -12 -193 -8 -13 -13 -12 -32 8 -19 18 -23 36
-26 97 -4 78 5 105 36 105 8 0 24 -7 34 -17z m2031 -25 c8 -12 5 -24 -17 -52
-31 -41 -56 -96 -56 -125 0 -12 11 -23 30 -30 35 -12 38 -30 11 -55 -35 -32
-54 -17 -79 62 -25 78 -40 88 -72 50 -18 -22 -18 -23 -39 -4 -12 11 -21 23
-21 27 0 13 91 99 105 99 8 0 26 11 41 25 32 29 80 31 97 3z m-5365 0 c-4 -12
-58 -31 -66 -23 -3 3 1 11 8 20 15 18 64 21 58 3z m4170 0 c17 -17 15 -48 -4
-48 -24 0 -54 19 -54 35 0 23 39 32 58 13z m160 -34 c51 -35 0 -95 -53 -60
-25 17 -30 31 -19 60 8 20 43 20 72 0z m-3718 -12 c0 -9 -54 -42 -69 -42 -25
0 -8 30 22 39 42 12 47 12 47 3z m1358 -10 c4 -14 -34 -16 -42 -3 -6 10 13 21
28 17 6 -1 12 -8 14 -14z m2523 -22 c26 -15 24 -35 -6 -48 -34 -16 -50 -15
-65 3 -10 13 -10 19 5 35 20 22 37 25 66 10z m-3311 -35 c0 -19 -11 -59 -24
-89 -22 -49 -28 -56 -62 -62 -70 -13 -89 22 -52 96 25 49 77 90 114 90 21 0
24 -5 24 -35z m-1760 -30 c0 -8 -4 -15 -10 -15 -5 0 -10 7 -10 15 0 8 5 15 10
15 6 0 10 -7 10 -15z m610 2 c0 -22 -31 -57 -51 -57 -26 0 -24 16 6 45 26 27
45 32 45 12z m4502 -49 c10 -17 10 -58 0 -58 -13 0 -83 76 -76 82 8 9 66 -10
76 -24z m532 11 c35 -28 33 -39 -8 -39 -46 0 -66 9 -66 29 0 37 34 42 74 10z
m-4954 -46 c0 -29 -29 -184 -41 -220 -6 -19 -17 -33 -26 -33 -24 0 -12 149 17
218 22 50 50 70 50 35z m1747 9 c11 -7 17 -45 15 -96 -2 -23 -19 -45 -78 -100
-60 -55 -83 -85 -106 -136 -35 -78 -77 -142 -89 -134 -17 10 -10 105 10 138
11 17 27 58 37 91 9 33 23 69 30 80 7 11 28 49 46 85 31 61 36 65 73 71 22 3
42 7 45 7 3 1 10 -2 17 -6z m-2408 -23 c42 -45 26 -94 -24 -71 -25 12 -32 41
-19 76 8 21 19 20 43 -5z m3859 -41 c2 -37 -1 -51 -18 -68 -31 -31 -45 -20
-48 39 -3 59 10 84 42 79 17 -2 22 -11 24 -50z m1600 40 c28 -28 -4 -57 -48
-43 -33 11 -17 55 20 55 9 0 21 -5 28 -12z m-3939 -35 c15 -33 2 -48 -34 -39
-31 8 -42 31 -25 51 19 23 46 18 59 -12z m2029 -31 c3 -9 -2 -13 -14 -10 -9 1
-19 9 -22 16 -3 9 2 13 14 10 9 -1 19 -9 22 -16z m2229 -12 c15 -17 36 -30 50
-30 12 0 23 -4 23 -10 0 -5 -4 -10 -10 -10 -17 0 -50 -43 -50 -65 0 -12 11
-39 25 -59 31 -45 32 -72 4 -81 -29 -10 -36 0 -63 94 -28 97 -55 133 -86 113
-26 -16 -60 -15 -60 1 0 8 10 23 23 34 58 53 105 57 144 13z m-433 -6 c7 -18
-37 -36 -78 -32 -40 4 -39 19 2 39 36 18 67 15 76 -7z m-186 -38 c20 -19 3
-42 -38 -51 -53 -12 -91 30 -57 64 15 16 75 8 95 -13z m-1783 -27 c-4 -5 -16
-9 -28 -9 -21 1 -21 1 -3 15 20 15 41 11 31 -6z m-3205 -86 c22 -47 40 -90 40
-94 0 -24 -82 2 -109 35 -28 33 -10 169 20 150 5 -2 27 -44 49 -91z m4828 48
c5 -45 -9 -57 -46 -42 -25 10 -35 10 -60 -3 -64 -33 -70 -11 -13 46 35 34 45
39 78 36 35 -3 38 -6 41 -37z m-2978 -11 c0 -23 -25 -27 -33 -6 -7 16 1 26 20
26 7 0 13 -9 13 -20z m3486 9 c10 -17 -13 -36 -27 -22 -12 12 -4 33 11 33 5 0
12 -5 16 -11z m-2009 -7 c9 -6 1 -24 -27 -67 -22 -33 -40 -70 -40 -83 0 -12
-7 -25 -15 -28 -59 -23 -70 130 -12 171 23 16 74 20 94 7z m2174 -27 c-1 -15
-24 -12 -29 3 -3 9 2 13 12 10 10 -1 17 -7 17 -13z m-3751 -14 c0 -5 -6 -11
-14 -14 -34 -13 -65 -112 -86 -272 -19 -152 -39 -254 -61 -322 -13 -41 -48
-44 -84 -8 -23 22 -25 32 -25 107 0 67 5 93 25 136 14 30 29 81 35 114 5 33
18 76 30 95 24 41 25 55 4 94 -18 36 -8 54 40 68 41 12 136 13 136 2z m1345
-31 c0 -10 -12 -16 -32 -18 -32 -3 -45 13 -26 32 13 12 58 2 58 -14z m2085
-158 c18 -22 20 -22 54 -6 47 23 66 8 66 -53 0 -64 -43 -70 -63 -9 -2 6 -15 1
-32 -12 -49 -39 -58 -31 -70 63 -4 28 -9 59 -11 70 -4 17 -2 17 16 -5 11 -14
29 -35 40 -48z m-3090 -1 c0 -20 -36 -71 -50 -71 -5 0 -5 14 0 31 15 52 50 80
50 40z m3752 -28 c18 -16 26 -93 10 -93 -19 0 -97 112 -86 123 8 8 55 -11 76
-30z m-2148 4 c24 -24 105 -291 92 -304 -14 -14 -41 15 -53 58 -22 74 -23 76
-33 59 -6 -8 -10 -52 -10 -98 0 -96 -18 -152 -49 -152 -46 0 -56 86 -15 127
14 14 22 28 16 32 -43 28 -40 141 4 141 23 0 26 21 9 75 -8 28 -15 58 -15 68
0 24 27 21 54 -6z m-3584 -28 c0 -11 -4 -19 -10 -19 -13 0 -32 38 -25 51 10
14 35 -9 35 -32z m4972 -20 c10 -6 18 -18 16 -27 -4 -17 -20 -19 -70 -6 -27 6
-28 5 -28 -30 0 -24 -5 -39 -16 -43 -23 -9 -34 15 -34 76 l0 54 56 -7 c31 -3
65 -11 76 -17z m-500 -56 c10 -9 18 -29 18 -45 0 -26 -3 -29 -27 -26 -22 2
-29 9 -31 31 -4 31 3 57 14 57 4 0 16 -7 26 -17z m1507 -22 c17 -11 7 -41 -14
-41 -9 0 -64 -21 -123 -47 -127 -55 -317 -113 -502 -153 -74 -16 -175 -38
-225 -50 -167 -39 -281 -55 -592 -80 -214 -17 -304 9 -214 63 32 19 76 22 86
7 8 -13 139 -13 228 0 37 6 89 21 115 35 l47 24 -87 1 c-74 0 -91 3 -108 20
-38 38 -24 49 27 24 79 -40 100 -30 110 55 4 33 10 51 19 51 8 0 14 -4 14 -10
0 -5 18 -10 40 -10 51 0 75 -32 67 -89 -9 -69 23 -77 118 -33 80 38 152 54
249 57 51 1 116 11 176 28 52 14 130 33 172 42 42 9 94 26 115 37 21 11 49 26
63 34 63 33 189 54 219 35z m-1014 -101 c4 -6 1 -18 -6 -26 -11 -13 -14 -13
-27 0 -8 8 -11 19 -8 25 9 14 33 14 41 1z m-500 -50 c15 -17 16 -22 4 -36 -7
-8 -13 -30 -13 -47 -1 -31 -2 -32 -40 -30 -22 2 -45 8 -50 13 -15 15 6 44 34
48 19 3 22 8 17 38 -5 28 -3 34 12 34 10 0 26 -9 36 -20z m1190 -123 c11 -72
10 -160 -3 -164 -28 -10 -67 162 -42 191 17 22 39 8 45 -27z m-117 14 c9 -5
12 -31 10 -92 l-3 -84 -29 3 c-24 3 -27 0 -21 -15 30 -75 25 -123 -15 -123
-10 0 -22 -4 -25 -10 -13 -21 -35 -9 -55 30 -28 55 -26 80 5 80 28 0 31 19 15
100 -10 53 -1 74 43 100 35 21 55 24 75 11z m-1892 -56 c-10 -8 -23 -12 -28
-9 -14 9 2 24 25 24 21 -1 21 -1 3 -15z m-582 -104 c88 -38 31 -69 -97 -51
-81 12 -150 32 -174 52 -27 22 9 29 118 25 78 -3 117 -10 153 -26z m-471 -13
c18 -18 43 -41 55 -50 l22 -18 -20 -50 c-24 -61 -25 -93 -4 -174 21 -82 36
-104 76 -108 24 -2 34 -9 36 -23 2 -11 13 -29 23 -41 11 -12 17 -28 13 -37 -3
-10 4 -22 21 -33 15 -10 31 -28 35 -40 5 -13 40 -41 80 -64 82 -48 130 -105
130 -157 0 -31 4 -36 48 -54 26 -11 55 -28 66 -37 27 -25 53 -81 60 -135 4
-27 14 -67 22 -90 8 -23 19 -59 24 -81 8 -36 6 -41 -32 -82 -22 -24 -49 -44
-60 -44 -43 0 -138 56 -138 82 0 18 42 7 47 -12 8 -28 55 -26 90 4 30 26 30
25 -21 40 -7 3 -24 24 -37 47 -34 60 -49 61 -49 5 0 -33 -4 -46 -14 -46 -21 0
-35 51 -42 156 -5 70 -10 94 -21 94 -14 0 -28 -26 -38 -73 -3 -15 -10 -25 -15
-22 -5 3 -7 53 -3 119 4 73 2 115 -4 119 -20 13 -32 -20 -43 -113 -6 -52 -13
-96 -15 -99 -15 -14 -29 28 -35 108 -4 49 -11 95 -15 101 -15 24 -29 -10 -35
-82 l-6 -73 -18 38 c-9 21 -24 84 -33 140 -23 144 -55 187 -108 145 -27 -21
-28 -21 -41 -3 -8 10 -14 28 -14 40 0 12 -11 32 -25 45 -15 14 -28 43 -35 75
-17 82 -28 292 -20 390 6 75 10 91 30 107 12 10 24 18 27 18 2 0 19 -15 36
-32z m-1113 -40 c33 -54 27 -68 -25 -68 -44 0 -45 1 -45 31 0 38 16 69 35 69
9 0 24 -15 35 -32z m2520 7 c16 -43 -15 -80 -46 -54 -17 14 -18 33 -4 60 15
27 39 24 50 -6z m-702 -27 c19 -61 23 -107 12 -128 -15 -29 -52 -23 -60 9 -9
39 -32 47 -89 32 -28 -7 -56 -9 -62 -5 -7 4 -26 10 -43 14 l-31 6 55 28 c67
35 169 75 192 76 10 0 20 -12 26 -32z m302 -73 c32 -16 39 -39 16 -48 -17 -7
-52 17 -66 44 -13 24 8 26 50 4z m2365 -8 c19 -15 13 -37 -9 -37 -18 0 -39 27
-31 40 8 13 17 13 40 -3z m-2557 -65 c17 -22 15 -36 -8 -57 -44 -39 -98 11
-65 61 18 27 49 26 73 -4z m-270 -24 c-2 -19 -9 -23 -40 -23 -45 0 -47 16 -4
31 45 17 48 16 44 -8z m-1587 -33 c26 -59 22 -87 -14 -99 -57 -20 -92 39 -63
107 22 54 51 50 77 -8z m1423 -116 c-20 -23 -34 -25 -34 -5 0 19 44 50 48 36
2 -6 -4 -20 -14 -31z m590 -1 c28 -39 49 -104 44 -138 -2 -19 -9 -25 -26 -25
-18 0 -27 8 -36 36 -7 21 -23 49 -34 64 -22 28 -27 51 -16 79 10 26 41 18 68
-16z m-721 -15 c3 -5 8 -23 12 -42 5 -25 4 -32 -6 -29 -20 7 -52 55 -45 67 8
13 33 15 39 4z m547 -18 c19 -23 10 -190 -12 -211 -30 -30 -38 -8 -38 105 0
59 3 111 7 114 11 11 30 8 43 -8z m2168 -121 c3 -22 -21 -39 -39 -28 -11 6
-12 38 -2 48 13 13 38 1 41 -20z m-2300 -23 c3 -16 -1 -22 -10 -19 -7 3 -15
15 -16 27 -3 16 1 22 10 19 7 -3 15 -15 16 -27z m1719 18 c86 -12 105 -22 101
-53 -3 -18 -9 -21 -45 -18 -43 4 -43 3 -43 -30 0 -56 20 -159 36 -187 8 -14
24 -41 35 -59 17 -26 19 -35 9 -47 -21 -25 -51 -17 -92 26 l-38 40 -34 -20
c-42 -26 -86 -26 -157 -1 -36 12 -78 19 -116 17 -58 -1 -93 12 -93 34 0 5 18
16 40 25 22 9 40 20 40 24 0 4 16 24 35 45 19 21 36 50 39 64 2 14 7 42 11 62
3 21 15 49 26 63 19 24 27 26 94 26 40 0 109 -5 152 -11z m-3347 -19 c0 -5 -9
-10 -20 -10 -11 0 -20 5 -20 10 0 6 9 10 20 10 11 0 20 -4 20 -10z m3548 -82
c13 -13 16 -47 6 -72 -11 -29 -34 3 -34 45 0 40 7 48 28 27z m-45 -176 c9 -8
17 -22 17 -31 0 -9 13 -32 29 -52 62 -74 35 -104 -32 -36 -79 79 -92 185 -14
119z m-1345 -95 c4 -42 -19 -87 -43 -87 -17 0 -37 42 -31 62 3 7 7 26 11 41 5
24 10 28 33 25 23 -3 27 -8 30 -41z m680 19 c15 -8 45 -18 67 -22 36 -8 40
-12 43 -42 3 -34 -28 -99 -107 -224 l-38 -60 -66 61 c-65 62 -107 130 -107
176 0 32 53 83 111 106 54 22 64 23 97 5z m-1758 -15 c5 -11 10 -40 10 -65 0
-44 -1 -46 -28 -46 -16 0 -36 8 -45 18 -15 16 -15 19 3 30 11 7 20 21 20 31 0
48 22 65 40 32z m-144 -49 c-9 -9 -37 8 -31 18 5 8 11 7 21 -1 8 -6 12 -14 10
-17z m222 -45 c2 -10 -3 -17 -12 -17 -10 0 -16 9 -16 21 0 24 23 21 28 -4z
m1167 4 c50 -23 80 -55 71 -77 -5 -14 -16 -16 -78 -9 -111 10 -133 31 -83 80
29 30 38 30 90 6z m865 -37 c0 -8 -6 -11 -15 -8 -8 4 -15 12 -15 20 0 8 6 11
15 8 8 -4 15 -12 15 -20z m-1836 -127 c4 -28 13 -59 20 -67 23 -25 27 -55 12
-76 -14 -18 -16 -17 -35 26 -23 54 -45 166 -36 189 11 27 31 -11 39 -72z
m-164 7 c0 -18 -4 -35 -9 -39 -20 -12 -43 70 -24 88 13 13 33 -16 33 -49z
m1889 29 c0 -10 -4 -27 -8 -37 -4 -11 -2 -42 4 -70 12 -52 4 -116 -18 -143
-16 -21 -130 -17 -158 6 -22 17 -22 19 -7 52 9 19 19 48 22 65 16 74 168 190
165 127z m195 -55 c13 -22 -5 -44 -28 -35 -22 9 -22 60 0 55 9 -2 22 -11 28
-20z m-2038 -105 c-10 -40 -56 -72 -56 -39 0 17 38 66 52 66 6 0 8 -11 4 -27z
m1994 -23 c0 -29 -21 -70 -37 -70 -17 0 -17 24 2 60 18 34 35 39 35 10z"/>
<path d="M7566 8685 c-48 -17 -69 -35 -40 -35 30 0 122 29 129 40 9 14 -43 11
-89 -5z"/>
<path d="M8076 8171 c-3 -5 1 -12 10 -15 36 -14 154 -2 154 15 0 12 -157 12
-164 0z"/>
<path d="M7751 7691 c-7 -5 -10 -14 -7 -20 11 -17 76 -13 136 9 l55 19 -85 0
c-47 1 -91 -3 -99 -8z"/>
<path d="M7587 7673 c-29 -8 -13 -28 24 -31 39 -3 89 12 89 28 0 10 -78 12
-113 3z"/>
<path d="M7442 7560 c-75 -11 -132 -28 -132 -41 0 -5 6 -9 13 -9 26 0 252 31
256 36 16 16 -61 24 -137 14z"/>
<path d="M7673 7563 c9 -2 25 -2 35 0 9 3 1 5 -18 5 -19 0 -27 -2 -17 -5z"/>
<path d="M6548 7372 c-27 -8 -48 -18 -48 -22 0 -8 112 3 128 13 19 13 14 27
-10 26 -13 0 -44 -8 -70 -17z"/>
<path d="M7603 7293 c-13 -2 -23 -9 -23 -14 0 -11 57 -11 84 0 18 7 18 8 -5
14 -13 4 -26 6 -29 6 -3 -1 -15 -4 -27 -6z"/>
<path d="M7381 7169 c-88 -8 -97 -11 -86 -28 8 -14 43 -14 114 -1 31 5 73 12
94 15 20 3 37 10 37 15 0 11 -37 11 -159 -1z"/>
<path d="M6793 6763 c9 -2 25 -2 35 0 9 3 1 5 -18 5 -19 0 -27 -2 -17 -5z"/>
<path d="M6491 7661 c-14 -9 -9 -41 7 -41 17 0 45 27 38 38 -9 14 -26 15 -45
3z"/>
<path d="M9455 6866 c-118 -38 -197 -86 -142 -86 26 0 173 48 230 76 81 39 21
46 -88 10z"/>
<path d="M6291 7057 c-19 -7 -37 -18 -39 -26 -4 -11 5 -13 48 -8 58 7 90 25
68 38 -17 11 -36 10 -77 -4z"/>
<path d="M8240 7060 c0 -5 9 -10 21 -10 11 0 17 5 14 10 -3 6 -13 10 -21 10
-8 0 -14 -4 -14 -10z"/>
<path d="M7778 6548 c-21 -6 -38 -14 -38 -19 0 -15 106 -11 119 4 22 27 -12
34 -81 15z"/>
<path d="M9852 6498 c3 -7 13 -15 22 -16 12 -3 17 1 14 10 -3 7 -13 15 -22 16
-12 3 -17 -1 -14 -10z"/>
<path d="M8564 6556 c-38 -17 -49 -32 -29 -40 23 -8 115 28 115 46 0 12 -51 9
-86 -6z"/>
<path d="M8450 6510 c-12 -8 -11 -10 7 -10 12 0 25 5 28 10 8 13 -15 13 -35 0z"/>
<path d="M8310 6475 c-7 -9 -10 -18 -6 -22 8 -9 56 14 56 27 0 15 -36 12 -50
-5z"/>
<path d="M7850 5290 c0 -5 6 -10 14 -10 8 0 18 5 21 10 3 6 -3 10 -14 10 -12
0 -21 -4 -21 -10z"/>
<path d="M7671 5254 c-13 -9 -19 -20 -14 -25 11 -11 72 5 98 26 19 13 17 14
-20 15 -22 0 -51 -7 -64 -16z"/>
<path d="M8930 3936 c0 -33 42 -91 65 -91 32 0 22 54 -15 88 -37 33 -50 34
-50 3z"/>
<path d="M8730 3860 c0 -13 7 -20 20 -20 23 0 26 10 8 28 -18 18 -28 15 -28
-8z"/>
<path d="M8770 3793 c1 -31 155 -274 234 -368 38 -46 32 -9 -10 61 -20 32 -59
97 -87 144 -70 119 -137 198 -137 163z"/>
<path d="M8680 3715 c0 -8 5 -15 10 -15 6 0 10 7 10 15 0 8 -4 15 -10 15 -5 0
-10 -7 -10 -15z"/>
<path d="M8771 3548 c47 -69 106 -119 79 -67 -16 29 -80 99 -92 99 -5 0 1 -15
13 -32z"/>
<path d="M9097 3462 c-12 -18 -20 -99 -13 -126 8 -31 53 -56 102 -56 42 0 42
4 -9 87 -45 76 -73 108 -80 95z"/>
<path d="M8705 3430 c-8 -12 20 -24 35 -15 6 3 8 11 5 16 -8 12 -32 12 -40 -1z"/>
<path d="M8766 3314 c-34 -34 -4 -64 65 -64 61 0 65 18 12 55 -44 29 -56 31
-77 9z"/>
<path d="M8917 3324 c-18 -18 -6 -55 20 -65 33 -12 95 -8 100 7 7 22 -103 75
-120 58z"/>
<path d="M8774 3035 c-19 -47 38 -97 72 -63 19 19 10 40 -25 61 -36 21 -40 21
-47 2z"/>
<path d="M8730 2880 c-13 -8 -12 -14 4 -45 22 -41 80 -95 101 -95 26 0 25 18
-5 55 -16 20 -32 46 -36 58 -11 35 -35 45 -64 27z"/>
<path d="M8690 2725 c0 -20 85 -111 109 -118 10 -2 25 0 32 5 11 7 3 18 -33
51 -26 23 -61 50 -77 60 -28 16 -31 16 -31 2z"/>
<path d="M8964 2375 c6 -19 14 -35 18 -35 13 0 9 45 -4 58 -21 21 -25 13 -14
-23z"/>
<path d="M8650 1982 c0 -4 16 -23 35 -42 41 -39 47 -26 9 19 -25 30 -44 40
-44 23z"/>
<path d="M8962 1798 c5 -15 28 -18 29 -3 0 6 -7 12 -17 13 -10 3 -15 -1 -12
-10z"/>
<path d="M8860 1601 c0 -13 29 -35 37 -28 7 8 -15 37 -28 37 -5 0 -9 -4 -9 -9z"/>
<path d="M7440 3485 c0 -8 5 -15 10 -15 6 0 10 7 10 15 0 8 -4 15 -10 15 -5 0
-10 -7 -10 -15z"/>
<path d="M10333 2594 c-8 -21 13 -42 28 -27 13 13 5 43 -11 43 -6 0 -13 -7
-17 -16z"/>
<path d="M7497 2044 c-10 -11 -9 -94 2 -94 18 0 32 30 29 61 -3 32 -17 46 -31
33z"/>
<path d="M7493 1908 c2 -7 10 -13 17 -13 7 0 15 6 18 13 2 7 -5 12 -18 12 -13
0 -20 -5 -17 -12z"/>
<path d="M9666 1797 l-29 -23 46 -47 c25 -26 50 -47 56 -47 6 0 11 18 10 43
-2 94 -29 118 -83 74z"/>
<path d="M8354 9461 c-77 -19 -65 -43 15 -31 59 10 66 14 56 29 -7 12 -25 13
-71 2z"/>
<path d="M8500 8995 c-22 -12 -23 -14 -7 -20 20 -8 79 13 71 26 -8 13 -35 10
-64 -6z"/>
<path d="M8184 8800 c-45 -18 -36 -30 23 -30 67 0 136 17 128 31 -8 11 -122
11 -151 -1z"/>
<path d="M9934 2415 c-3 -25 -4 -56 0 -69 6 -23 33 -42 44 -31 8 7 -20 145
-29 145 -4 0 -11 -20 -15 -45z"/>
<path d="M9623 2423 c-15 -37 -8 -167 10 -215 23 -58 41 -75 62 -58 23 19 18
52 -15 115 -22 43 -30 70 -30 110 0 55 -15 81 -27 48z"/>
<path d="M9751 2325 c-1 -96 30 -195 60 -195 20 0 18 42 -6 85 -14 27 -25 57
-25 69 -1 12 -7 32 -15 46 l-14 25 0 -30z"/>
<path d="M9850 2317 c0 -7 6 -22 14 -33 14 -18 15 -18 21 -1 7 17 -10 47 -26
47 -5 0 -9 -6 -9 -13z"/>
<path d="M9450 2230 c0 -15 14 -27 54 -44 29 -13 57 -29 60 -35 8 -13 46 -15
46 -3 0 15 -126 102 -146 102 -8 0 -14 -9 -14 -20z"/>
<path d="M9910 2180 c0 -24 26 -38 42 -22 8 8 8 15 -2 27 -18 21 -40 19 -40
-5z"/>
</g>
</svg>
